<svg width="37" height="38" viewBox="0 0 37 38" fill="none" xmlns="http://www.w3.org/2000/svg">
<path fill-rule="evenodd" clip-rule="evenodd" d="M12.4243 0H35.4033C35.8415 0 36.24 0.18238 36.5311 0.472952V0.476043C36.8192 0.769706 37 1.17156 37 1.6136V23.8083C37 24.2535 36.8192 24.6553 36.5311 24.949C36.24 25.2427 35.8415 25.4219 35.4002 25.4219H27.337C27.3309 24.9304 27.3033 24.442 27.2543 23.9629H35.4064C35.4462 23.9629 35.486 23.9444 35.5136 23.9165C35.5412 23.8887 35.5596 23.8485 35.5596 23.8083V5.78671C35.5106 5.79598 35.4585 5.79907 35.4064 5.79907H12.4243C12.3722 5.79907 12.3201 5.79289 12.271 5.78671V10.4111C11.7837 10.4111 11.2995 10.4359 10.8245 10.4822V1.6136C10.8245 1.16847 11.0053 0.763524 11.2934 0.472952C11.3118 0.454405 11.3271 0.438949 11.3455 0.423493C11.6305 0.160742 12.0105 0 12.4243 0ZM21.7869 31.0046C21.8267 30.9335 21.8666 30.8563 21.9095 30.779L21.9125 30.7759C21.9616 30.6832 22.0075 30.5904 22.0535 30.5008C22.1056 30.3988 22.1546 30.2937 22.2037 30.1855C22.2558 30.0742 22.3017 29.9691 22.3477 29.864L22.3661 29.83C22.4335 29.6662 22.4979 29.5054 22.5561 29.3416C22.6143 29.1777 22.6726 29.0108 22.7247 28.8408V28.8377C22.7768 28.6708 22.8227 28.5008 22.8657 28.3277C22.9086 28.1546 22.9484 27.9784 22.9821 27.8022C23.0097 27.66 23.0342 27.524 23.0557 27.3879C23.0771 27.2519 23.0955 27.1128 23.1139 26.9706V26.9675C23.1292 26.8439 23.1415 26.7172 23.1537 26.5873C23.1629 26.4853 23.1691 26.3833 23.1752 26.2844H20.1626C20.1442 26.6801 20.0982 27.0757 20.0339 27.4652C19.9634 27.8825 19.8653 28.2998 19.7397 28.711C19.6171 29.1159 19.47 29.5209 19.3014 29.9227C19.1482 30.2844 18.9735 30.6461 18.7774 31.0077L21.7869 31.0046ZM20.8736 32.408H17.9192C17.671 32.7666 17.4013 33.1252 17.1163 33.4776C16.819 33.8424 16.5003 34.2102 16.1601 34.575C15.8475 34.9119 15.5135 35.2488 15.158 35.5858C14.8699 35.8609 14.5695 36.136 14.26 36.408L14.5082 36.3617C14.6799 36.3277 14.8515 36.2875 15.0262 36.2411C15.2009 36.1978 15.3725 36.1484 15.541 36.0958C15.7096 36.0433 15.8782 35.9845 16.0467 35.9227C16.2153 35.8609 16.3808 35.7929 16.5432 35.7218C16.7118 35.6476 16.8772 35.5734 17.0366 35.4961C17.196 35.4189 17.3553 35.3354 17.5147 35.2488C17.671 35.1623 17.8273 35.0757 17.9744 34.983C18.1246 34.8903 18.2747 34.7975 18.4157 34.6986C18.5598 34.5997 18.7038 34.5008 18.8417 34.3957C18.9796 34.2906 19.1175 34.1855 19.2493 34.0742C19.3811 33.966 19.5129 33.8516 19.6416 33.7311C19.7703 33.6136 19.896 33.493 20.0186 33.3663C20.1136 33.2674 20.2086 33.1716 20.3005 33.0726C20.3924 32.9737 20.4813 32.8748 20.5671 32.7728C20.6376 32.6924 20.705 32.609 20.7725 32.5255L20.8736 32.408ZM10.328 36.408C10.0154 36.136 9.71507 35.8609 9.42699 35.5858C9.07455 35.2488 8.74049 34.9119 8.4279 34.575C8.08772 34.2102 7.76899 33.8454 7.47171 33.4776C7.18363 33.1221 6.917 32.7666 6.66876 32.408H3.72053L3.8186 32.5317C3.88603 32.6151 3.95651 32.6986 4.02394 32.779C4.19862 32.9799 4.38251 33.1777 4.57252 33.3694L4.57558 33.3756C4.69817 33.4992 4.82382 33.6198 4.95254 33.7372C5.08126 33.8547 5.21304 33.9691 5.34482 34.0773C5.4766 34.1886 5.61451 34.2937 5.75242 34.3988C5.8934 34.5039 6.03437 34.6028 6.17841 34.7017C6.31939 34.7975 6.46956 34.8934 6.62279 34.9861C6.77296 35.0788 6.9262 35.1654 7.07637 35.2488C7.23573 35.3354 7.3951 35.4189 7.55752 35.4961C7.71689 35.5734 7.88238 35.6476 8.05094 35.7218C8.06626 35.728 8.07239 35.7342 8.08772 35.7434C8.25014 35.8114 8.40951 35.8733 8.57194 35.9351C8.73437 35.9938 8.89986 36.0526 9.06842 36.1051H9.07148C9.23697 36.1577 9.40553 36.204 9.57716 36.2473C9.74878 36.2906 9.92347 36.3308 10.0982 36.3648L10.328 36.408ZM2.79193 31.0108H5.80146C5.60532 30.6461 5.43063 30.2844 5.27433 29.9196C5.10271 29.5147 4.9556 29.1097 4.83608 28.7048C4.71349 28.2906 4.61542 27.8764 4.54493 27.459C4.47751 27.0696 4.43461 26.6801 4.41622 26.2875H1.40669C1.41282 26.3864 1.42202 26.4884 1.42815 26.5904C1.4404 26.7202 1.45266 26.8501 1.46799 26.9737C1.48637 27.119 1.50476 27.2581 1.52622 27.391C1.54767 27.524 1.57219 27.6631 1.59977 27.8053L1.60283 27.8176C1.63654 27.9907 1.67639 28.1638 1.71929 28.34C1.7622 28.5162 1.81123 28.6893 1.86333 28.8594C1.91543 29.0294 1.97366 29.1994 2.03495 29.3694C2.09625 29.5394 2.16367 29.7063 2.23416 29.8702L2.23722 29.8764C2.28013 29.9784 2.3261 30.0835 2.37513 30.1886L2.3782 30.1917C2.42417 30.2906 2.4732 30.3926 2.52224 30.4977C2.57127 30.5966 2.61724 30.6893 2.66628 30.7821C2.70919 30.8563 2.74903 30.9335 2.79193 31.0108ZM1.40669 24.8903H4.44686C4.48058 24.5039 4.53881 24.1175 4.61849 23.728C4.7043 23.3138 4.81463 22.8995 4.94947 22.4853L4.95254 22.4791C5.08432 22.0742 5.24368 21.6692 5.4245 21.2674C5.58999 20.8995 5.77388 20.5317 5.97921 20.1638H2.79193C2.74903 20.2411 2.70612 20.3215 2.66628 20.3957C2.61724 20.4853 2.57127 20.5811 2.52224 20.6801L2.51918 20.6832C2.46708 20.7852 2.4211 20.8872 2.37207 20.9892C2.32303 21.0943 2.27706 21.1994 2.23416 21.3045L2.22496 21.323L2.21271 21.3416C2.14528 21.5023 2.08399 21.6662 2.0227 21.83C1.96447 21.9969 1.90624 22.1638 1.85414 22.3308C1.80204 22.5008 1.753 22.6708 1.7101 22.847C1.66719 23.0201 1.62735 23.1963 1.59364 23.3725C1.56606 23.5147 1.54154 23.6538 1.52009 23.7867C1.49863 23.9227 1.47718 24.0618 1.46186 24.204C1.44653 24.3308 1.43427 24.4575 1.42202 24.5873C1.41895 24.6893 1.40976 24.7913 1.40669 24.8903ZM3.70827 18.7697H6.84958C7.09782 18.4142 7.36138 18.0618 7.64334 17.7063C7.93448 17.3416 8.24708 16.9768 8.575 16.609C8.88147 16.2689 9.20939 15.9289 9.55264 15.5858C9.83459 15.3045 10.1319 15.0201 10.4383 14.7388L10.3096 14.7604L10.089 14.8037C9.91734 14.8377 9.74265 14.8779 9.56796 14.9243C9.39327 14.9675 9.22165 15.017 9.05003 15.0696C8.88147 15.1221 8.71291 15.1808 8.54435 15.2427C8.3758 15.3045 8.2103 15.3725 8.04788 15.4436C7.87625 15.5178 7.71382 15.5951 7.55446 15.6723C7.3951 15.7496 7.23573 15.8331 7.07943 15.9165C6.92007 16.0031 6.76683 16.0927 6.61666 16.1824C6.4665 16.272 6.31939 16.3679 6.17841 16.4637C6.03131 16.5626 5.89033 16.6646 5.75242 16.7666C5.61145 16.8717 5.4766 16.9768 5.34482 17.0881C5.21304 17.1963 5.08126 17.3107 4.95254 17.4312C4.82689 17.5487 4.70123 17.6692 4.57558 17.796L4.56945 17.7991C4.47445 17.8949 4.38251 17.9907 4.29363 18.0866C4.20169 18.1855 4.11281 18.2844 4.027 18.3864C3.95651 18.4668 3.88603 18.5502 3.8186 18.6368L3.70827 18.7697ZM14.1527 14.7512C14.4592 15.0325 14.7534 15.3138 15.0354 15.5951C15.3786 15.9351 15.7004 16.2751 16.0069 16.6121C16.3379 16.9768 16.6474 17.3416 16.9385 17.7094C17.2205 18.0649 17.4841 18.4173 17.7292 18.7728H20.8644L20.7663 18.6461C20.6989 18.5626 20.6315 18.4822 20.561 18.3988C20.4752 18.2998 20.3863 18.1978 20.2944 18.0989C20.2055 18.0031 20.1136 17.9073 20.0124 17.8053C19.8868 17.6785 19.7611 17.5549 19.6324 17.4405C19.5037 17.3199 19.3719 17.2087 19.2401 17.1005C19.1083 16.9892 18.9704 16.8841 18.8325 16.779C18.6915 16.6739 18.5506 16.575 18.4065 16.476C18.2625 16.3802 18.1154 16.2844 17.9652 16.1917C17.815 16.0989 17.6618 16.0124 17.5055 15.9258C17.3492 15.8393 17.1898 15.7589 17.0305 15.6816C16.8711 15.6043 16.7056 15.5301 16.534 15.456C16.5187 15.4498 16.5125 15.4436 16.4972 15.4343C16.3348 15.3663 16.1724 15.3014 16.013 15.2427C15.8506 15.1839 15.6851 15.1252 15.5165 15.0726H15.5135C15.348 15.0201 15.1763 14.9737 15.0078 14.9274C14.8362 14.8841 14.6645 14.8439 14.4868 14.8099L14.2661 14.7666L14.1527 14.7512ZM21.7869 20.1638H18.6057C18.8111 20.5317 18.9949 20.8995 19.1574 21.2643C19.3382 21.6692 19.4976 22.0773 19.6293 22.4822C19.7642 22.8964 19.8776 23.3107 19.9603 23.7249C20.04 24.1144 20.0982 24.5008 20.1319 24.8872H23.1691C23.1629 24.7883 23.1537 24.6862 23.1476 24.5842C23.1353 24.4544 23.1231 24.3277 23.1078 24.2009C23.0894 24.0556 23.071 23.9165 23.0495 23.7836C23.0281 23.6507 23.0036 23.5116 22.976 23.3694L22.9729 23.357C22.9392 23.1839 22.8994 23.0108 22.8534 22.8346C22.8105 22.6584 22.7614 22.4853 22.7094 22.3153C22.6572 22.1453 22.599 21.9753 22.5377 21.8053C22.4764 21.6352 22.409 21.4714 22.3416 21.3076L22.3385 21.2983C22.2956 21.1963 22.2496 21.0912 22.2006 20.9861L22.1975 20.983C22.1546 20.8872 22.1056 20.7852 22.0535 20.677C22.0045 20.575 21.9554 20.4822 21.9095 20.3957C21.8758 20.3246 21.8328 20.2442 21.7869 20.1638ZM9.8254 13.4374C10.0277 13.3972 10.2299 13.3601 10.4291 13.3292C10.6283 13.2983 10.8306 13.2736 11.039 13.2519C11.2474 13.2303 11.4558 13.2148 11.6642 13.2056C11.8757 13.1963 12.0871 13.1901 12.2955 13.1901C12.7154 13.1901 13.1322 13.2117 13.5459 13.2519C13.7543 13.2736 13.9566 13.2983 14.1589 13.3292C14.3581 13.3601 14.5603 13.3941 14.7657 13.4374C14.9618 13.4745 15.158 13.5209 15.351 13.5703C15.5441 13.6198 15.7372 13.6754 15.9303 13.7342C16.1203 13.7929 16.3103 13.8578 16.4972 13.9258C16.6811 13.9938 16.8681 14.068 17.0519 14.1484C17.0734 14.1546 17.0856 14.1607 17.1071 14.1731C17.2818 14.2504 17.4565 14.3308 17.6342 14.4173C17.815 14.5039 17.9897 14.5966 18.1583 14.6893L18.1614 14.6924C18.336 14.7883 18.5077 14.8872 18.6762 14.9892L18.6793 14.9923C18.8509 15.0974 19.0195 15.2025 19.1819 15.3138C19.3413 15.4219 19.5006 15.5332 19.6569 15.6476C19.8132 15.7651 19.9665 15.8856 20.1197 16.0093C20.2729 16.136 20.42 16.2658 20.5671 16.3988C20.7173 16.5348 20.8613 16.6739 20.9993 16.813L21.0054 16.8192C21.1433 16.9552 21.2781 17.0974 21.4069 17.2427C21.5386 17.3879 21.6643 17.5363 21.7899 17.6909C21.9125 17.8424 22.0321 17.9969 22.1485 18.1577C22.265 18.3184 22.3784 18.4822 22.4887 18.6461L22.4918 18.6492C22.6021 18.8161 22.7063 18.983 22.8074 19.1468C22.9086 19.3168 23.0097 19.49 23.1047 19.6692C23.1997 19.8424 23.2886 20.0216 23.3744 20.204C23.4633 20.3895 23.546 20.5719 23.6257 20.7573C23.7054 20.9459 23.782 21.1345 23.8525 21.3292C23.923 21.5209 23.9873 21.7156 24.0486 21.9134C24.1099 22.1113 24.1651 22.306 24.2141 22.5039C24.2631 22.6986 24.3091 22.8995 24.349 23.1036C24.3888 23.3076 24.4256 23.5085 24.4562 23.7125C24.4869 23.9134 24.5114 24.1206 24.5328 24.3308C24.5543 24.541 24.5696 24.7512 24.5788 24.9614C24.588 25.1747 24.5941 25.3879 24.5941 25.5981C24.5941 25.8083 24.588 26.0185 24.5788 26.2318C24.5696 26.442 24.5543 26.6492 24.5328 26.8594C24.5114 27.0696 24.4869 27.2767 24.4562 27.4776V27.4807C24.4256 27.6785 24.3919 27.8825 24.349 28.0866C24.3122 28.2844 24.2662 28.4822 24.2172 28.677C24.1681 28.8717 24.113 29.0665 24.0547 29.2612C23.9965 29.4529 23.9322 29.6445 23.8647 29.8331C23.7973 30.0185 23.7238 30.2071 23.6441 30.3895C23.638 30.4142 23.6288 30.4266 23.6165 30.4482C23.5399 30.6306 23.4571 30.8099 23.3713 30.9892C23.2855 31.1685 23.1936 31.3447 23.0986 31.5209C23.0005 31.7002 22.9024 31.8733 22.8044 32.0402C22.7032 32.2102 22.599 32.3771 22.4887 32.541C22.3814 32.7017 22.2711 32.8624 22.1546 33.0232C22.0382 33.1808 21.9187 33.3354 21.7961 33.4869L21.793 33.49C21.6674 33.6445 21.5386 33.796 21.4069 33.9413L21.4038 33.9444C21.2689 34.0927 21.1341 34.2349 20.9993 34.374L20.9901 34.3833C20.8521 34.5224 20.7142 34.6584 20.5733 34.7883C20.4292 34.9181 20.2821 35.0479 20.1319 35.1747C19.9818 35.2983 19.8285 35.4189 19.6692 35.5394C19.5098 35.6569 19.3505 35.7713 19.188 35.8794C19.0256 35.9907 18.8601 36.0989 18.6915 36.2009C18.523 36.3029 18.3483 36.4049 18.1705 36.5008C17.9959 36.5966 17.8181 36.6862 17.6404 36.7759C17.4595 36.8655 17.2757 36.949 17.0948 37.0263C16.9079 37.1066 16.7179 37.1839 16.5279 37.255C16.3379 37.3261 16.1448 37.391 15.9486 37.4529C15.7556 37.5147 15.5625 37.5672 15.3664 37.6167C15.1733 37.6662 14.9741 37.7125 14.7687 37.7527C14.5665 37.7929 14.3673 37.83 14.165 37.8609C13.9658 37.8918 13.7605 37.9165 13.5521 37.9382C13.1353 37.9784 12.7185 38 12.2955 38C12.0871 38 11.8787 37.9938 11.6673 37.9845C11.4589 37.9753 11.2535 37.9598 11.0451 37.9382C10.8367 37.9165 10.6314 37.8918 10.4322 37.8609C10.233 37.83 10.0307 37.796 9.82846 37.7527C9.63232 37.7156 9.43618 37.6692 9.2431 37.6198C9.05003 37.5703 8.85695 37.5147 8.66694 37.456C8.47693 37.3972 8.28999 37.3323 8.10304 37.2643C7.91609 37.1963 7.72915 37.119 7.5422 37.0417C7.52381 37.0325 7.50849 37.0294 7.4901 37.017C7.31541 36.9397 7.13766 36.8594 6.96297 36.7728C6.78522 36.6862 6.61054 36.5966 6.44198 36.5039C6.26729 36.408 6.09567 36.3091 5.92711 36.2071C5.75242 36.102 5.5808 35.9938 5.41531 35.8825C5.25594 35.7743 5.09658 35.6631 4.94028 35.5456C4.78398 35.4281 4.63075 35.3076 4.48058 35.1839C4.32734 35.0572 4.17717 34.9274 4.03007 34.7913C3.8799 34.6522 3.73586 34.5162 3.60101 34.3802L3.59488 34.374C3.45697 34.2349 3.32212 34.0958 3.19341 33.9505C3.06469 33.8083 2.93597 33.6569 2.81032 33.5054C2.68773 33.3539 2.56515 33.1963 2.44869 33.0355C2.33223 32.8779 2.21884 32.7141 2.11157 32.5502C2.00124 32.3864 1.89704 32.2195 1.79284 32.0495C1.69171 31.8794 1.59057 31.7032 1.49557 31.524C1.40056 31.3478 1.31169 31.1716 1.22281 30.9892C1.13394 30.8068 1.05119 30.6213 0.974571 30.4389C0.894889 30.2504 0.818272 30.0587 0.747784 29.8671C0.677296 29.6754 0.612938 29.4807 0.551644 29.2828C0.49035 29.0881 0.438251 28.8934 0.389216 28.6955C0.340181 28.5008 0.29421 28.2998 0.254369 28.0927C0.211464 27.8887 0.177752 27.6847 0.147105 27.4807C0.116458 27.2798 0.0919407 27.0757 0.0704879 26.8655C0.049035 26.6553 0.0337116 26.4451 0.0245175 26.2349C0.00612938 26.0093 0 25.7991 0 25.5889C0 25.1654 0.0214528 24.745 0.0612938 24.3277C0.0827466 24.1175 0.107264 23.9134 0.137911 23.7094C0.168558 23.5085 0.20227 23.3045 0.245175 23.0974C0.281951 22.8995 0.327922 22.7048 0.376957 22.507C0.425992 22.3122 0.481156 22.1175 0.539385 21.9227C0.597614 21.7311 0.661973 21.5394 0.729396 21.3509C0.796819 21.1654 0.870372 20.9799 0.946989 20.7944C0.953118 20.7759 0.956183 20.7697 0.965377 20.7512L0.974571 20.7357C1.05119 20.5533 1.13394 20.3709 1.21975 20.1917C1.30556 20.0124 1.3975 19.8362 1.4925 19.66C1.58751 19.4807 1.68864 19.3076 1.78671 19.1406C1.88785 18.9706 1.99205 18.8037 2.10238 18.6399C2.20964 18.4791 2.31997 18.3184 2.43643 18.1607C2.55289 18.0031 2.67241 17.8485 2.795 17.6971C2.92065 17.5425 3.04937 17.3941 3.18115 17.2458C3.31599 17.0943 3.45391 16.949 3.59182 16.8099L3.59795 16.8037C3.73586 16.6646 3.87683 16.5286 4.01781 16.3957C4.16185 16.2628 4.30895 16.136 4.46219 16.0093C4.61542 15.8825 4.76866 15.762 4.92496 15.6476L4.93109 15.6445C5.09045 15.527 5.24981 15.4127 5.40918 15.3076C5.57161 15.1963 5.7371 15.0881 5.90566 14.9861C6.07421 14.8841 6.2489 14.7821 6.42665 14.6862C6.59828 14.5904 6.77603 14.5008 6.95685 14.4142C7.13766 14.3246 7.32154 14.2411 7.50236 14.1638L7.50849 14.1607C7.6985 14.0773 7.88545 14.0031 8.07239 13.9351C8.2624 13.864 8.45548 13.7991 8.65162 13.7372C8.84469 13.6754 9.04083 13.6198 9.23697 13.5703C9.43005 13.5209 9.62926 13.4745 9.83152 13.4343L9.8254 13.4374ZM12.982 15.5611V18.7666H16.0161C15.8291 18.5255 15.6299 18.2844 15.4246 18.0402C15.1825 17.7558 14.925 17.4683 14.6553 17.1839C14.3826 16.8964 14.0945 16.6059 13.7942 16.3122C13.5337 16.068 13.264 15.8145 12.982 15.5611ZM12.982 20.1638V24.8903H18.7498C18.713 24.5255 18.6517 24.1607 18.5659 23.7929C18.4739 23.3972 18.3575 23.0015 18.2104 22.6028C18.0602 22.1947 17.8825 21.7836 17.6771 21.3725C17.4779 20.9706 17.2481 20.5688 16.9937 20.1669H12.982V20.1638ZM12.982 26.2875V31.0139H17.1776C17.4228 30.6182 17.6404 30.2257 17.8304 29.83C18.0265 29.4219 18.192 29.017 18.3268 28.609C18.4586 28.2102 18.5628 27.8083 18.6394 27.4096C18.7099 27.0355 18.7559 26.6646 18.7774 26.2906H12.982V26.2875ZM12.982 32.408V35.6723C13.2824 35.4189 13.5704 35.1623 13.8493 34.9057C14.1681 34.6121 14.4715 34.3184 14.7595 34.0278C15.0476 33.7342 15.3173 33.4436 15.5748 33.153C15.7923 32.9057 16.0007 32.6553 16.1969 32.408H12.982ZM11.5968 35.6723V32.4049H8.38499C8.58113 32.6553 8.78953 32.9026 9.00406 33.1499C9.25843 33.4405 9.52812 33.7311 9.8162 34.0216C10.1043 34.3153 10.4077 34.6059 10.7264 34.8995C11.0022 35.1623 11.2934 35.4158 11.5968 35.6723ZM11.5968 31.0108V26.2875H5.80146C5.82291 26.6615 5.87195 27.0325 5.94243 27.4065C6.01905 27.8083 6.12325 28.2071 6.2581 28.609C6.39294 29.017 6.55844 29.425 6.75458 29.83C6.94459 30.2257 7.15911 30.6213 7.40429 31.0139H11.5968V31.0108ZM11.5968 24.8903V20.1638H7.58204C7.32767 20.5657 7.10089 20.9675 6.89862 21.3694C6.69328 21.7805 6.51553 22.1917 6.36536 22.5997C6.22132 22.9985 6.1018 23.3941 6.00986 23.7898C5.92405 24.1576 5.86582 24.5224 5.82597 24.8872H11.5968V24.8903ZM11.5968 18.7697V15.5611C11.3148 15.8145 11.0451 16.0649 10.7877 16.3153C10.4843 16.6059 10.1962 16.8995 9.92347 17.187C9.65377 17.4714 9.39634 17.7589 9.15423 18.0433C8.94889 18.2844 8.74969 18.5286 8.56274 18.7697H11.5968ZM26.2368 19.8856H32.3447C32.6819 19.8856 32.9546 20.1855 32.9546 20.5533C32.9546 20.9212 32.6819 21.221 32.3447 21.221H26.7057C26.5709 20.7666 26.4146 20.3215 26.2368 19.8856ZM24.6861 16.983C24.7351 16.9675 24.7872 16.9614 24.8424 16.9614H32.3447C32.6819 16.9614 32.9546 17.2612 32.9546 17.6291C32.9546 17.9969 32.6819 18.2968 32.3447 18.2968H25.4921C25.2438 17.8454 24.9772 17.4065 24.6861 16.983ZM14.5726 7.47141H32.8841V14.7017H22.7768C20.5825 12.5502 17.7415 11.0696 14.5726 10.5811V7.47141ZM21.5019 2.08655C22.075 2.08655 22.5408 2.55641 22.5408 3.13447C22.5408 3.71252 22.075 4.18238 21.5019 4.18238C20.9288 4.18238 20.4629 3.71252 20.4629 3.13447C20.4629 2.55641 20.9288 2.08655 21.5019 2.08655ZM17.8671 2.08655C18.4402 2.08655 18.9061 2.55641 18.9061 3.13447C18.9061 3.71252 18.4402 4.18238 17.8671 4.18238C17.294 4.18238 16.8282 3.71252 16.8282 3.13447C16.8251 2.55641 17.291 2.08655 17.8671 2.08655ZM14.2294 2.08655C14.8025 2.08655 15.2683 2.55641 15.2683 3.13447C15.2683 3.71252 14.8025 4.18238 14.2294 4.18238C13.6563 4.18238 13.1904 3.71252 13.1904 3.13447C13.1904 2.55641 13.6563 2.08655 14.2294 2.08655Z" fill="#1A1F36"/>
</svg>
