<svg width="40" height="37" viewBox="0 0 40 37" fill="none" xmlns="http://www.w3.org/2000/svg">
<path d="M17.0098 3.32124C18.6448 3.32124 20.2189 3.55824 21.7064 3.99701C21.9436 4.06747 22.1841 4.14433 22.4277 4.2276C22.8566 4.37552 23.0353 4.87535 22.8183 5.27372L22.6169 5.64333C22.3453 6.14192 21.7477 6.35744 21.2047 6.19153C19.8787 5.78641 18.4719 5.56954 17.013 5.56954H17.0098C15.0349 5.56954 13.1531 5.96988 11.4412 6.69369C11.1622 6.81219 10.8865 6.9371 10.6204 7.07161C9.2355 7.76339 7.9788 8.67296 6.89521 9.75548L6.8888 9.76189C6.52974 10.1206 6.18671 10.5017 5.86933 10.8988C5.54874 11.2992 5.24739 11.7155 4.96848 12.1479C3.52903 14.377 2.69871 17.0256 2.69871 19.8664V19.8696C2.69871 21.8425 3.09945 23.7225 3.82398 25.4327C3.94259 25.7114 4.06762 25.9868 4.20227 26.2526C4.89474 27.633 5.80521 28.8917 6.892 29.9742L6.89842 29.9806C7.25747 30.3393 7.63897 30.682 8.0365 31.0023C8.43724 31.3225 8.854 31.6236 9.2868 31.9022C11.5149 33.3306 14.1662 34.1601 17.0098 34.1601H17.013C18.9878 34.1601 20.8696 33.7598 22.5816 33.036C22.8605 32.9175 23.1362 32.7926 23.4023 32.6581C24.7872 31.9663 26.0439 31.0567 27.1275 29.9742H27.1307L27.1404 29.9646C27.4994 29.6059 27.8392 29.228 28.1598 28.8308C28.4804 28.4305 28.7818 28.0141 29.0607 27.5818C30.3246 25.6169 31.1201 23.3217 31.2877 20.8554C31.3259 20.2929 31.7322 19.8127 32.2894 19.727L32.5478 19.6872C33.0897 19.6038 33.5571 20.0142 33.5571 20.5624C33.5571 22.8459 33.1065 24.331 32.2698 26.3071C32.1351 26.6274 31.9876 26.9444 31.8306 27.2583C31.0291 28.8596 29.9744 30.3137 28.7209 31.5659L28.7144 31.5723C28.2977 31.9887 27.8553 32.3858 27.3968 32.7541C26.9352 33.1257 26.4511 33.4748 25.951 33.795C23.3734 35.4508 20.3054 36.4116 17.013 36.4116C14.7272 36.4116 12.5472 35.9472 10.5692 35.1113C10.2486 34.9768 9.93118 34.8295 9.617 34.6726C8.01406 33.8719 6.55859 32.8182 5.30509 31.5659L5.29868 31.5563C4.88192 31.14 4.48759 30.7012 4.11571 30.24C3.74383 29.7788 3.39439 29.2952 3.0738 28.7956C1.40995 26.2206 0.448181 23.1556 0.448181 19.8664V19.8632C0.448181 17.5797 0.913034 15.4051 1.74977 13.4258C1.88442 13.1055 2.03189 12.7884 2.18898 12.4746C2.99045 10.8732 4.04518 9.4192 5.29868 8.16694L5.30509 8.16053C5.72186 7.74418 6.16427 7.35024 6.62271 6.97873C7.08436 6.60722 7.56845 6.25812 8.06856 5.93785C10.6493 4.28205 13.7173 3.32124 17.0098 3.32124ZM18.3626 19.1202L28.7561 0.0512695L30.0994 10.8796L39.8421 15.8086L18.3626 19.1202ZM17.0098 14.63H17.013C17.3412 14.63 17.5236 14.9852 17.3666 15.2734L16.7687 16.3714C16.5766 16.7242 16.2272 16.9548 15.8569 17.1107C15.8533 17.1122 15.8497 17.1138 15.846 17.1153C15.7883 17.1409 15.7306 17.1666 15.6729 17.1954C15.3844 17.3395 15.1215 17.5285 14.8939 17.7558L14.8875 17.7623C14.8137 17.8359 14.7464 17.9128 14.6791 17.9929C14.6118 18.0761 14.5477 18.1626 14.4899 18.2555C14.1918 18.7199 14.0187 19.2739 14.0187 19.8664V19.8696C14.0187 20.2828 14.102 20.6735 14.2559 21.0322C14.2816 21.0931 14.3072 21.1507 14.3361 21.2052C14.4803 21.4934 14.6695 21.756 14.8971 21.9834L14.9035 21.9898C14.9772 22.0635 15.0542 22.134 15.1343 22.198C15.2177 22.2653 15.3042 22.3293 15.3972 22.387C15.8621 22.6848 16.4167 22.8578 17.0098 22.8578C17.4233 22.8578 17.8144 22.7745 18.1735 22.624C18.2344 22.5983 18.2889 22.5727 18.3466 22.5439C18.6352 22.3998 18.898 22.2108 19.1256 21.9834L19.1321 21.977C19.1737 21.9354 19.2122 21.8938 19.2475 21.8553C19.3197 21.7766 19.412 21.7181 19.5175 21.7018L21.4212 21.4079C21.7152 21.3625 21.9562 21.6368 21.8378 21.9098C21.7962 22.009 21.7481 22.1115 21.7 22.2108C21.4467 22.7201 21.1133 23.178 20.7158 23.5752L20.7062 23.5816C20.5747 23.7097 20.4401 23.8346 20.2958 23.9499C20.1483 24.0684 19.9977 24.1773 19.8374 24.2798C19.0199 24.8018 18.0517 25.1061 17.0098 25.1061C16.2852 25.1061 15.596 24.9587 14.9708 24.6929C14.8714 24.6513 14.7689 24.6032 14.6695 24.5552C14.1597 24.3022 13.7013 23.9691 13.3038 23.572L13.2942 23.5624C13.1659 23.4343 13.0409 23.2965 12.9255 23.1524C12.8069 23.0051 12.6979 22.8546 12.5953 22.6944C12.0727 21.8809 11.7682 20.9105 11.7682 19.8696V19.8664C11.7682 19.1426 11.9156 18.454 12.1817 17.8295C12.2234 17.7302 12.2715 17.6277 12.3196 17.5285C12.5728 17.0224 12.9062 16.5612 13.3038 16.1673C13.4352 16.036 13.5763 15.9111 13.7237 15.7926C13.8712 15.6741 14.0219 15.5652 14.1822 15.4627C14.9965 14.9343 15.9679 14.63 17.0098 14.63ZM17.0098 8.92918C17.9908 8.92918 18.9397 9.05729 19.8406 9.3007C19.988 9.33913 20.1323 9.38076 20.2766 9.4288C20.3984 9.46937 20.4542 9.60925 20.3928 9.72203L19.8542 10.7118C19.597 11.1843 19.0475 11.407 18.5175 11.3145C18.0273 11.2289 17.5224 11.1839 17.0066 11.1839C15.8076 11.1839 14.6631 11.4273 13.6212 11.8661C13.4577 11.9365 13.2909 12.0134 13.121 12.0967L13.1082 12.1031C12.2715 12.5226 11.5149 13.0735 10.8577 13.73L10.8513 13.7364C10.6333 13.9542 10.4281 14.1848 10.2325 14.425C10.037 14.6684 9.85424 14.9215 9.68433 15.1841C8.81553 16.5356 8.31221 18.1466 8.31221 19.8728V19.876C8.31221 21.0739 8.55586 22.2172 8.99506 23.2581C9.06559 23.4278 9.14253 23.5944 9.22589 23.7577C9.64586 24.5968 10.2005 25.3591 10.8609 26.0188C11.0821 26.2398 11.3161 26.448 11.5566 26.6434C11.8002 26.8387 12.0535 27.0213 12.3164 27.191C13.6692 28.0526 15.2818 28.5554 17.0098 28.5554H17.013C18.212 28.5554 19.3565 28.312 20.3984 27.8732C20.5683 27.8028 20.735 27.7259 20.8985 27.6426C21.7384 27.2231 22.5014 26.669 23.1619 26.0092C23.3831 25.7882 23.5947 25.5544 23.787 25.3142C23.9826 25.0708 24.1653 24.8178 24.3352 24.5552C24.9016 23.675 25.3119 22.6881 25.5303 21.6303C25.6367 21.1148 26.0288 20.6911 26.549 20.6108C27.2717 20.4993 27.9179 21.081 27.7893 21.8008C27.645 22.6085 27.4125 23.3859 27.1019 24.1228C27.0121 24.3342 26.9159 24.5456 26.8102 24.7506C26.2812 25.8107 25.5823 26.7715 24.7552 27.5978L24.7488 27.6042C24.4731 27.8796 24.1813 28.139 23.88 28.3856C23.5754 28.6323 23.2548 28.8628 22.9246 29.0742C21.2191 30.1664 19.1898 30.8037 17.0162 30.8037C15.5062 30.8037 14.0636 30.4962 12.7556 29.9454C12.544 29.8557 12.3324 29.7596 12.1272 29.6539C11.0661 29.1255 10.1043 28.4273 9.27718 27.601L9.27077 27.5914C8.99506 27.3159 8.73539 27.0277 8.49174 26.7234C8.24489 26.4192 8.01406 26.0989 7.80247 25.769C6.70606 24.0652 6.0713 22.0411 6.0713 19.8664V19.8632C6.0713 18.3548 6.37906 16.9135 6.93368 15.6068C7.02345 15.3955 7.11962 15.1841 7.22542 14.9791C7.75439 13.919 8.45327 12.9582 9.28039 12.1319L9.2868 12.1255C9.5625 11.8501 9.85103 11.5906 10.1556 11.3472C10.4602 11.1006 10.7807 10.87 11.1109 10.6586C12.8069 9.56332 14.8362 8.92918 17.0098 8.92918Z" fill="#1A1F36"/>
</svg>
