<svg width="40" height="38" viewBox="0 0 40 38" fill="none" xmlns="http://www.w3.org/2000/svg">
<path d="M11.9715 22.3299C11.9715 22.5844 11.7651 22.788 11.5143 22.788C11.2603 22.788 11.057 22.5812 11.057 22.3299V11.109H1.45568V33.7226H3.04003C3.29403 33.7226 3.49724 33.9294 3.49724 34.1807C3.49724 34.4352 3.29086 34.6389 3.04003 34.6389H0.998468C0.744463 34.6389 0.54126 34.4321 0.54126 34.1807V10.864C0.54126 10.6795 0.617461 10.5109 0.738113 10.3868C0.858765 10.2659 1.02704 10.1895 1.21437 10.1895H11.057V1.2529C11.057 1.03338 11.1459 0.82977 11.292 0.686606V0.683424C11.4381 0.537078 11.6381 0.447998 11.8603 0.447998H28.1642C28.3865 0.447998 28.5865 0.537078 28.7326 0.683424L28.7675 0.721601C28.8913 0.864766 28.9707 1.04929 28.9707 1.2529V10.1895H38.8832C39.0674 10.1895 39.2357 10.2659 39.3563 10.3868L39.3595 10.39C39.4802 10.5109 39.5564 10.6795 39.5564 10.864V34.1807C39.5564 34.4352 39.35 34.6389 39.0991 34.6389H36.1971C35.9431 34.6389 35.7399 34.4321 35.7399 34.1807C35.7399 33.9262 35.9463 33.7226 36.1971 33.7226H38.6419V11.109H28.9675V22.1963C28.9675 22.4508 28.7612 22.6544 28.5103 22.6544C28.2563 22.6544 28.0531 22.4476 28.0531 22.1963V1.36425H11.9715V22.3299ZM31.3869 22.2535H36.4353C36.4765 22.2535 36.5115 22.279 36.5115 22.3076V23.8029C36.5115 23.8347 36.4765 23.8602 36.4353 23.8602H31.3869C31.3457 23.8602 31.3107 23.8347 31.3107 23.8029V22.3076C31.3107 22.279 31.3457 22.2535 31.3869 22.2535ZM3.62424 22.2535H8.67258C8.71385 22.2535 8.74878 22.279 8.74878 22.3076V23.8029C8.74878 23.8347 8.71385 23.8602 8.67258 23.8602H3.62424C3.58296 23.8602 3.54804 23.8347 3.54804 23.8029V22.3076C3.54804 22.279 3.58296 22.2535 3.62424 22.2535ZM14.0225 3.14267H26.0052C26.2052 3.14267 26.3703 3.30811 26.3703 3.50854V7.42488C26.3703 7.62531 26.2052 7.79075 26.0052 7.79075H14.0225C13.8225 7.79075 13.6574 7.62531 13.6574 7.42488V3.50854C13.6542 3.30811 13.8193 3.14267 14.0225 3.14267ZM31.4663 33.8594C31.1329 33.1881 30.7106 32.6186 30.2153 32.0842C31.1425 32.4437 32.0918 32.8 32.7935 33.2422C34.0699 34.0439 34.1651 35.0143 34.2699 36.4077H27.942C27.942 36.3982 27.942 36.3855 27.942 36.3759L27.8245 35.3801L28.2786 35.7746L30.5011 33.8371L31.4663 33.8594ZM8.82181 32.2878L9.6251 34.6548L10.0283 33.2486L9.83147 33.0322C9.74257 32.9018 9.72352 32.7873 9.77115 32.6886C9.8791 32.4755 10.1014 32.5168 10.3077 32.5168C10.5236 32.5168 10.7935 32.4755 10.8602 32.7491C10.8824 32.8414 10.8538 32.9368 10.7903 33.0354L10.5935 33.2518L10.9967 34.6579L11.7238 32.291C11.8286 32.3864 11.9778 32.4659 12.1493 32.5359C12.0889 32.6632 12.035 32.7936 11.9873 32.9336C11.8635 33.2931 11.7841 33.6908 11.7492 34.133H11.7524C11.7524 34.1426 11.7524 34.1553 11.7492 34.1648L11.5746 36.4109H5.76105C5.4118 36.3855 5.23399 36.2041 5.20542 35.8923L5.32607 34.6516C5.361 34.2094 5.48482 33.8626 5.68485 33.5953C5.8182 33.4204 5.98331 33.2899 6.16428 33.1881C6.74214 32.8541 8.29792 32.7618 8.82181 32.2878ZM8.4281 28.9314C8.34872 28.9377 8.29157 28.9568 8.24712 28.9823C8.22172 28.9982 8.20585 29.0204 8.19315 29.0459C8.18045 29.0745 8.1741 29.1127 8.1741 29.1541C8.17727 29.2845 8.24712 29.4595 8.38365 29.6599L8.38682 29.6631L8.83451 30.3789C9.01231 30.6653 9.20281 30.9548 9.43142 31.1679C9.6505 31.3683 9.92038 31.5051 10.2728 31.5083C10.657 31.5083 10.9364 31.3683 11.165 31.1552C11.4031 30.9325 11.5936 30.6207 11.781 30.3121L12.2858 29.4786C12.3874 29.2463 12.4191 29.1063 12.3874 29.0395C12.3683 28.9982 12.2826 28.9886 12.1461 28.9982C12.0572 29.0173 11.9683 29.0014 11.8699 28.9505L12.1207 28.1933C11.1967 28.1805 10.5617 28.0215 9.8156 27.5411C9.57112 27.3852 9.49492 27.2039 9.25044 27.2198C9.06311 27.2548 8.90753 27.3407 8.78371 27.4743C8.66305 27.6015 8.57415 27.7765 8.517 28.0024L8.66623 28.9123C8.58685 28.96 8.50748 28.9632 8.4281 28.9314ZM12.4318 28.7055C12.5398 28.7373 12.6192 28.8009 12.67 28.8964C12.7462 29.0523 12.7176 29.2813 12.5747 29.6058C12.5715 29.6122 12.5684 29.6186 12.5652 29.6249L12.054 30.468C11.8572 30.7957 11.654 31.1234 11.3841 31.3779C11.1015 31.642 10.7554 31.8169 10.2792 31.8169C9.83465 31.8169 9.50127 31.6451 9.22821 31.3938C8.96468 31.152 8.76466 30.8434 8.57733 30.5412L8.12964 29.8253C7.96137 29.574 7.87564 29.345 7.86929 29.1572C7.86611 29.065 7.88199 28.9823 7.91692 28.9091C7.95184 28.8327 8.00899 28.7659 8.08202 28.7182C8.11694 28.6928 8.15822 28.6737 8.20585 28.6578C8.17727 28.276 8.16775 27.802 8.1868 27.4011C8.19632 27.3025 8.21537 27.207 8.24077 27.1084C8.35507 26.698 8.644 26.3671 8.99961 26.1413C9.12661 26.0617 9.26314 25.9949 9.40919 25.9408C10.2728 25.629 11.4158 25.7977 12.0286 26.4626C12.2794 26.733 12.435 27.0925 12.4668 27.5665L12.4318 28.7055ZM16.95 25.5368C16.8483 25.5495 16.7721 25.575 16.715 25.61C16.6769 25.6354 16.6515 25.6672 16.6356 25.7022C16.6166 25.7468 16.607 25.8008 16.607 25.8613C16.6134 26.0554 16.7182 26.3162 16.9182 26.6153L16.9214 26.6216L17.5913 27.6906C17.858 28.1169 18.1374 28.5496 18.4835 28.8677C18.8137 29.17 19.2106 29.3736 19.7376 29.3736C20.3092 29.3736 20.7283 29.1636 21.0648 28.8455C21.4204 28.5114 21.7062 28.0501 21.9824 27.5888L22.7349 26.348C22.8873 26.0013 22.9318 25.7913 22.8841 25.6959C22.8524 25.6322 22.7222 25.6163 22.5 25.6386C22.4841 25.6386 22.465 25.6386 22.4491 25.6386C22.3571 25.6386 22.2586 25.6163 22.1475 25.5654L22.4872 24.4328C21.1061 24.4169 20.1631 24.1751 19.0455 23.4593C18.6772 23.2239 18.5692 22.9566 18.2009 22.9821C17.9247 23.0362 17.6897 23.1602 17.5056 23.3607C17.3278 23.5516 17.1944 23.8124 17.1055 24.1497L17.3437 25.5209C17.2071 25.5845 17.0738 25.5909 16.95 25.5368ZM17.5723 30.5412L18.7724 34.0757L19.3757 31.9792L19.0804 31.6547C18.9471 31.4606 18.9185 31.2888 18.9915 31.1425C19.1503 30.8243 19.4836 30.8848 19.7916 30.8848C20.1155 30.8848 20.5155 30.8243 20.6171 31.2284C20.6521 31.3652 20.6076 31.5051 20.5124 31.6547L20.2171 31.9792L20.8203 34.0757L21.9062 30.5412C22.6905 31.2474 24.7066 31.3906 25.5702 31.871C25.8052 32.0014 26.0179 32.1637 26.1989 32.3705C26.2021 32.3482 26.2084 32.3228 26.2211 32.3037C26.3164 32.116 26.5132 32.151 26.6974 32.151C26.8911 32.151 27.1292 32.116 27.1895 32.3578C27.2086 32.4373 27.1832 32.5232 27.1292 32.6123L26.9546 32.8064L27.3133 34.0535L26.853 34.4193L27.0054 36.4205C26.9609 36.8881 26.6974 37.1554 26.1767 37.1967H13.305C12.7843 37.1554 12.5207 36.8881 12.4763 36.4205L12.6573 34.063C12.7081 33.4045 12.8922 32.8827 13.1939 32.485C13.3907 32.2242 13.6384 32.0301 13.9114 31.8774C14.7719 31.3906 16.788 31.2474 17.5723 30.5412ZM22.9572 25.1964C23.1191 25.2441 23.2397 25.3363 23.3128 25.4827C23.4271 25.7149 23.3826 26.0554 23.1699 26.5421C23.1667 26.5517 23.1604 26.5612 23.1572 26.5707L22.392 27.8306C22.0967 28.3205 21.7951 28.8073 21.3919 29.1859C20.9696 29.5804 20.452 29.8444 19.744 29.8413C19.0804 29.8413 18.5819 29.5867 18.1723 29.2113C17.7786 28.8518 17.4834 28.3905 17.1976 27.9388L16.5277 26.8698C16.2768 26.4976 16.1498 26.154 16.1403 25.8708C16.1371 25.734 16.1594 25.61 16.2102 25.5018C16.2641 25.3873 16.3467 25.2886 16.4578 25.2155C16.5118 25.1773 16.5753 25.1486 16.642 25.1232C16.6007 24.5505 16.588 23.8443 16.6134 23.2493C16.6293 23.103 16.6547 22.9598 16.6959 22.8135C16.8674 22.1995 17.296 21.7063 17.8294 21.3691C18.0168 21.2482 18.2231 21.1496 18.4391 21.0732C19.7249 20.6056 21.4331 20.8601 22.3475 21.8527C22.719 22.2567 22.954 22.7912 23.0048 23.4975L22.9572 25.1964ZM25.2845 31.0311L25.875 31.0152L26.3672 31.0025C25.7957 29.2368 25.9862 27.6143 27.3641 26.2335C27.5991 26.9907 28.123 27.6174 29.0152 28.0787C29.4406 28.3969 29.8534 28.7787 30.2534 29.2209C30.3233 28.9282 30.0534 28.575 29.7264 28.2092C30.028 28.3587 30.3074 28.5687 30.5043 28.9727C30.7329 29.4404 30.7297 29.8349 30.6535 30.3439C30.6186 30.5794 30.5614 30.8021 30.4789 31.0025H31.2949C32.1553 29.1573 31.6092 26.418 29.8502 25.2568C29.3104 24.9005 28.9231 24.9132 28.2881 24.9132C27.5642 24.9132 27.1927 24.9355 26.5704 25.3491C25.656 25.9567 25.0908 27.0066 24.8558 28.4637C24.8082 29.1922 24.7765 30.4489 25.2845 31.0311ZM31.3869 18.9862H36.4353C36.4765 18.9862 36.5115 19.0117 36.5115 19.0435V20.5387C36.5115 20.5706 36.4765 20.596 36.4353 20.596H31.3869C31.3457 20.596 31.3107 20.5706 31.3107 20.5387V19.0435C31.3107 19.0117 31.3457 18.9862 31.3869 18.9862ZM31.3869 15.7157H36.4353C36.4765 15.7157 36.5115 15.7411 36.5115 15.773V17.2682C36.5115 17.3 36.4765 17.3255 36.4353 17.3255H31.3869C31.3457 17.3255 31.3107 17.3 31.3107 17.2682V15.773C31.3107 15.7411 31.3457 15.7157 31.3869 15.7157ZM3.62424 18.9862H8.67258C8.71385 18.9862 8.74878 19.0117 8.74878 19.0435V20.5387C8.74878 20.5706 8.71385 20.596 8.67258 20.596H3.62424C3.58296 20.596 3.54804 20.5706 3.54804 20.5387V19.0435C3.54804 19.0117 3.58296 18.9862 3.62424 18.9862ZM3.62424 15.7157H8.67258C8.71385 15.7157 8.74878 15.7411 8.74878 15.773V17.2682C8.74878 17.3 8.71385 17.3255 8.67258 17.3255H3.62424C3.58296 17.3255 3.54804 17.3 3.54804 17.2682V15.773C3.54804 15.7411 3.58296 15.7157 3.62424 15.7157ZM23.2969 16.0625H25.9925C26.0338 16.0625 26.0687 16.0975 26.0687 16.1388V18.8399C26.0687 18.8812 26.0338 18.9162 25.9925 18.9162H23.2969C23.2556 18.9162 23.2207 18.8812 23.2207 18.8399V16.1388C23.2207 16.0975 23.2556 16.0625 23.2969 16.0625ZM18.6645 16.0625H21.3601C21.4014 16.0625 21.4363 16.0975 21.4363 16.1388V18.8399C21.4363 18.8812 21.4014 18.9162 21.3601 18.9162H18.6645C18.6232 18.9162 18.5883 18.8812 18.5883 18.8399V16.1388C18.5883 16.0975 18.6232 16.0625 18.6645 16.0625ZM14.0321 16.0625H16.7277C16.769 16.0625 16.8039 16.0975 16.8039 16.1388V18.8399C16.8039 18.8812 16.769 18.9162 16.7277 18.9162H14.0321C13.9908 18.9162 13.9559 18.8812 13.9559 18.8399V16.1388C13.9559 16.0975 13.9908 16.0625 14.0321 16.0625ZM23.2969 10.8227H25.9925C26.0338 10.8227 26.0687 10.8576 26.0687 10.899V13.6C26.0687 13.6414 26.0338 13.6764 25.9925 13.6764H23.2969C23.2556 13.6764 23.2207 13.6414 23.2207 13.6V10.899C23.2207 10.8545 23.2556 10.8227 23.2969 10.8227ZM18.6645 10.8227H21.3601C21.4014 10.8227 21.4363 10.8576 21.4363 10.899V13.6C21.4363 13.6414 21.4014 13.6764 21.3601 13.6764H18.6645C18.6232 13.6764 18.5883 13.6414 18.5883 13.6V10.899C18.5883 10.8545 18.6232 10.8227 18.6645 10.8227ZM14.0321 10.8227H16.7277C16.769 10.8227 16.8039 10.8576 16.8039 10.899V13.6C16.8039 13.6414 16.769 13.6764 16.7277 13.6764H14.0321C13.9908 13.6764 13.9559 13.6414 13.9559 13.6V10.899C13.9559 10.8545 13.9908 10.8227 14.0321 10.8227Z" fill="#1A1F36"/>
</svg>
