<svg width="36" height="36" viewBox="0 0 36 36" fill="none" xmlns="http://www.w3.org/2000/svg">
<path d="M1 3.42285e-08C0.447715 -7.91831e-09 -7.91831e-09 0.447715 3.42285e-08 1L-5.00652e-08 10C-5.00652e-08 10.5523 0.447715 11 1 11C1.55228 11 2 10.5523 2 10L2 2L10 2C10.5523 2 11 1.55228 11 1C11 0.447715 10.5523 -5.00652e-08 10 -5.00652e-08L1 3.42285e-08ZM35 36C35.5523 36 36 35.5523 36 35L36 26C36 25.4477 35.5523 25 35 25C34.4477 25 34 25.4477 34 26L34 34L26 34C25.4477 34 25 34.4477 25 35C25 35.5523 25.4477 36 26 36L35 36ZM1 1L0.292893 1.70711L34.2929 35.7071L35 35L35.7071 34.2929L1.70711 0.292893L1 1Z" fill="#1A1F36"/>
<path d="M35 3.42285e-08C35.5523 -7.91831e-09 36 0.447715 36 1L36 10C36 10.5523 35.5523 11 35 11C34.4477 11 34 10.5523 34 10L34 2L26 2C25.4477 2 25 1.55228 25 1C25 0.447715 25.4477 -5.00652e-08 26 -5.00652e-08L35 3.42285e-08ZM1 36C0.447718 36 2.75743e-06 35.5523 1.15585e-06 35L6.07943e-07 26C1.61947e-06 25.4477 0.447716 25 1 25C1.55229 25 2 25.4477 2 26L2 34L10 34C10.5523 34 11 34.4477 11 35C11 35.5523 10.5523 36 10 36L1 36ZM35 1L35.7071 1.70711L1.70711 35.7071L1 35L0.292895 34.2929L34.2929 0.292893L35 1Z" fill="#1A1F36"/>
</svg>
