<svg width="42" height="40" viewBox="0 0 42 40" fill="none" xmlns="http://www.w3.org/2000/svg">
<path fill-rule="evenodd" clip-rule="evenodd" d="M27.1317 32.8742C28.2746 36.2362 33.0536 36.3632 34.1297 32.8742C36.7731 35.2537 40.9672 33.4758 41.5654 38.2581C41.4953 39.01 41.0708 39.4444 40.2287 39.5113H21.0294C20.1872 39.4444 19.7628 39.01 19.6926 38.2581C20.2607 33.7097 24.6286 35.1267 27.1317 32.8742ZM2.53853 13.471H32.1947V2.37253C32.1963 2.32855 32.1882 2.28476 32.1709 2.2443C32.1535 2.20385 32.1274 2.16775 32.0944 2.1386C32.065 2.10598 32.0289 2.08013 31.9885 2.06282C31.9481 2.04551 31.9044 2.03716 31.8605 2.03834H2.87272C2.82874 2.0367 2.78494 2.04485 2.74448 2.06219C2.70403 2.07952 2.66793 2.10562 2.63878 2.1386C2.60322 2.16555 2.57528 2.20129 2.55771 2.2423C2.54013 2.28332 2.53352 2.3282 2.53853 2.37253V13.471ZM32.1947 15.1821H2.53853V37.2053C2.53735 37.2493 2.5457 37.2929 2.56301 37.3333C2.58031 37.3737 2.60617 37.4098 2.63878 37.4393C2.66793 37.4723 2.70403 37.4984 2.74448 37.5157C2.78494 37.533 2.82874 37.5412 2.87272 37.5395L15.0975 37.5061C15.3634 37.5061 15.6184 37.6117 15.8064 37.7998C15.9944 37.9878 16.1 38.2428 16.1 38.5087C16.1 38.7746 15.9944 39.0296 15.8064 39.2176C15.6184 39.4056 15.3634 39.5113 15.0975 39.5113H2.87272C2.24496 39.5069 1.64436 39.2547 1.20176 38.8095C0.978603 38.5923 0.801459 38.3325 0.680885 38.0454C0.560312 37.7583 0.498779 37.4499 0.499956 37.1385V2.37253C0.498779 2.06116 0.560312 1.75275 0.680885 1.46567C0.801459 1.17859 0.978603 0.918726 1.20176 0.701575C1.41891 0.47842 1.67877 0.301275 1.96585 0.180702C2.25293 0.0601288 2.56135 -0.00140401 2.87272 -0.000227585H31.8271C32.4549 0.0041217 33.0555 0.256375 33.4981 0.701575C33.7212 0.918726 33.8984 1.17859 34.0189 1.46567C34.1395 1.75275 34.201 2.06116 34.1999 2.37253V16.6693C34.1999 16.9352 34.0942 17.1902 33.9062 17.3782C33.7182 17.5662 33.4632 17.6718 33.1973 17.6718C32.9314 17.6718 32.6764 17.5662 32.4884 17.3782C32.3003 17.1902 32.1947 16.9352 32.1947 16.6693V15.1821ZM11.428 4.93579H13.5568C13.5746 4.93482 13.5925 4.93762 13.6091 4.94399C13.6258 4.95037 13.6409 4.96018 13.6535 4.9728C13.6661 4.98541 13.6759 5.00053 13.6823 5.01719C13.6887 5.03384 13.6915 5.05165 13.6905 5.06946V12.5119C13.6915 12.5297 13.6887 12.5475 13.6823 12.5642C13.6759 12.5808 13.6661 12.596 13.6535 12.6086C13.6409 12.6212 13.6258 12.631 13.6091 12.6374C13.5925 12.6438 13.5746 12.6466 13.5568 12.6456H11.428C11.41 12.6471 11.3918 12.6446 11.3747 12.6385C11.3576 12.6323 11.3421 12.6226 11.3291 12.6099C11.3161 12.5972 11.306 12.5819 11.2994 12.565C11.2929 12.5481 11.29 12.53 11.291 12.5119V5.06946C11.29 5.05135 11.2929 5.03324 11.2994 5.01634C11.306 4.99943 11.3161 4.98413 11.3291 4.97147C11.3421 4.9588 11.3576 4.94906 11.3747 4.94291C11.3918 4.93675 11.41 4.93433 11.428 4.93579ZM16.2838 7.76305H18.416C18.4338 7.76208 18.4516 7.76488 18.4683 7.77126C18.4849 7.77763 18.5 7.78745 18.5126 7.80006C18.5253 7.81267 18.5351 7.82779 18.5414 7.84445C18.5478 7.8611 18.5506 7.87892 18.5497 7.89673V12.4852C18.5506 12.503 18.5478 12.5208 18.5414 12.5375C18.5351 12.5541 18.5253 12.5692 18.5126 12.5818C18.5 12.5945 18.4849 12.6043 18.4683 12.6106C18.4516 12.617 18.4338 12.6198 18.416 12.6189H16.2838C16.266 12.6198 16.2482 12.617 16.2316 12.6106C16.2149 12.6043 16.1998 12.5945 16.1872 12.5818C16.1746 12.5692 16.1647 12.5541 16.1584 12.5375C16.152 12.5208 16.1492 12.503 16.1502 12.4852V7.89673C16.1525 7.86204 16.1673 7.82939 16.1919 7.80481C16.2165 7.78023 16.2492 7.76539 16.2838 7.76305ZM26.0021 7.76305H28.1309C28.149 7.76159 28.1672 7.76402 28.1843 7.77017C28.2013 7.77633 28.2169 7.78606 28.2298 7.79873C28.2428 7.8114 28.2529 7.82669 28.2595 7.8436C28.2661 7.8605 28.269 7.87862 28.268 7.89673V12.4852C28.269 12.5033 28.2661 12.5214 28.2595 12.5383C28.2529 12.5552 28.2428 12.5705 28.2298 12.5832C28.2169 12.5958 28.2013 12.6056 28.1843 12.6117C28.1672 12.6179 28.149 12.6203 28.1309 12.6189H26.0021C25.9843 12.6198 25.9665 12.617 25.9499 12.6106C25.9332 12.6043 25.9181 12.5945 25.9055 12.5818C25.8929 12.5692 25.883 12.5541 25.8767 12.5375C25.8703 12.5208 25.8675 12.503 25.8685 12.4852V7.89673C25.8708 7.86204 25.8856 7.82939 25.9102 7.80481C25.9348 7.78023 25.9675 7.76539 26.0021 7.76305ZM21.143 4.93579H23.2718C23.2899 4.93433 23.308 4.93675 23.3251 4.94291C23.3422 4.94906 23.3577 4.9588 23.3707 4.97147C23.3837 4.98413 23.3938 4.99943 23.4004 5.01634C23.4069 5.03324 23.4098 5.05135 23.4088 5.06946V12.5119C23.4098 12.53 23.4069 12.5481 23.4004 12.565C23.3938 12.5819 23.3837 12.5972 23.3707 12.6099C23.3577 12.6226 23.3422 12.6323 23.3251 12.6385C23.308 12.6446 23.2899 12.6471 23.2718 12.6456H21.143C21.1252 12.6466 21.1074 12.6438 21.0907 12.6374C21.0741 12.631 21.0589 12.6212 21.0463 12.6086C21.0337 12.596 21.0239 12.5808 21.0175 12.5642C21.0111 12.5475 21.0083 12.5297 21.0093 12.5119V5.06946C21.0083 5.05165 21.0111 5.03384 21.0175 5.01719C21.0239 5.00053 21.0337 4.98541 21.0463 4.9728C21.0589 4.96018 21.0741 4.95037 21.0907 4.94399C21.1074 4.93762 21.1252 4.93482 21.143 4.93579ZM6.57222 5.95841H8.70102C8.7194 5.95689 8.73789 5.9594 8.7552 5.96575C8.77252 5.97209 8.78824 5.98214 8.80128 5.99518C8.81432 6.00822 8.82436 6.02394 8.83071 6.04125C8.83706 6.05857 8.83956 6.07705 8.83804 6.09543V12.5119C8.83906 12.53 8.83618 12.5481 8.8296 12.565C8.82303 12.5819 8.81291 12.5972 8.79993 12.6099C8.78695 12.6226 8.7714 12.6323 8.75434 12.6385C8.73728 12.6446 8.7191 12.6471 8.70102 12.6456H6.57222C6.55441 12.6466 6.5366 12.6438 6.51995 12.6374C6.50329 12.631 6.48816 12.6212 6.47555 12.6086C6.46294 12.596 6.45313 12.5808 6.44675 12.5642C6.44038 12.5475 6.43758 12.5297 6.43854 12.5119V6.09543C6.41181 6.01188 6.49201 5.95841 6.57222 5.95841ZM13.7908 27.3467L19.5188 27.4469C19.5205 28.451 19.2758 29.44 18.8062 30.3274C18.3366 31.2148 17.6564 31.9734 16.8252 32.5367L13.7908 27.33V27.3467ZM13.4766 25.5955L13.4098 18.9117V18.4672L13.8476 18.5006C14.3833 18.5378 14.914 18.6285 15.4316 18.7713C16.9686 19.2019 18.3304 20.1066 19.323 21.3566C20.3155 22.6066 20.8881 24.138 20.9592 25.7325L20.9926 26.1703H20.5515L13.9144 25.9698H13.5334L13.4666 25.5654L13.4766 25.5955ZM14.2854 25.1912L20.117 25.3582C19.9957 24.2415 19.6036 23.1712 18.9745 22.2405C18.3455 21.3098 17.4987 20.5468 16.5077 20.0179C15.895 19.7053 15.2414 19.4803 14.5661 19.3495C14.4525 19.3294 14.3355 19.3094 14.2319 19.2994L14.2987 25.1644L14.2854 25.1912ZM11.8625 26.7351L15.1309 32.4164C14.1358 32.9893 13.0075 33.29 11.8593 33.2883C10.7111 33.2866 9.58362 32.9824 8.59032 32.4065C7.59702 31.8306 6.77295 31.0032 6.20102 30.0076C5.62909 29.012 5.32949 27.8833 5.33237 26.7351C5.33009 25.0462 5.98159 23.422 7.15032 22.2028C8.31906 20.9836 9.91432 20.2641 11.6018 20.195L11.8625 26.7351ZM26.1358 26.7084C25.9924 26.7158 25.8533 26.7595 25.7314 26.8354C25.6696 26.8735 25.6206 26.9294 25.5911 26.9958C25.5555 27.0791 25.5395 27.1694 25.5443 27.2598C25.6095 27.7076 25.7865 28.1317 26.0589 28.493L27.1417 30.2141C27.5391 30.9073 28.0256 31.5454 28.5888 32.1123C29.1341 32.6431 29.8663 32.9384 30.6273 32.9344C31.0274 32.9437 31.4253 32.8732 31.7977 32.7269C32.1701 32.5805 32.5096 32.3614 32.7963 32.0822C33.378 31.4735 33.8779 30.7916 34.2834 30.0536L35.4999 28.0485C35.7472 27.487 35.8341 27.1428 35.7405 26.9757C35.6937 26.8822 35.5266 26.8487 35.2559 26.8621C35.0357 26.9184 34.804 26.9114 34.5875 26.8421L35.0788 25.4552C32.8497 25.4284 31.3258 25.0408 29.5245 23.8878C28.9297 23.5102 28.7525 23.0757 28.161 23.1192C27.7316 23.1948 27.3386 23.4083 27.0415 23.7274C26.7243 24.0892 26.5026 24.5246 26.3965 24.994L26.7574 26.7251C26.5561 26.7796 26.3438 26.7796 26.1425 26.7251L26.1358 26.7084ZM35.8274 26.2104C35.9462 26.2408 36.057 26.2966 36.1522 26.3739C36.2474 26.4512 36.3247 26.5482 36.3788 26.6583C36.5593 27.0259 36.4857 27.5706 36.1449 28.3493L36.1248 28.3927L34.8883 30.4112C34.4521 31.2079 33.9103 31.9419 33.2775 32.5935C32.9279 32.936 32.5133 33.2053 32.0583 33.3855C31.6032 33.5657 31.1167 33.6532 30.6273 33.6429C29.6897 33.6505 28.7864 33.2906 28.1109 32.6403C27.4977 32.0335 26.9694 31.3467 26.5402 30.5984L25.4607 28.8773C25.112 28.4126 24.8971 27.8613 24.8391 27.2832C24.8294 27.0812 24.8672 26.8798 24.9494 26.695C25.0368 26.5103 25.1732 26.3531 25.3438 26.2405C25.4327 26.1821 25.528 26.1339 25.6278 26.0968C25.5579 25.2543 25.5434 24.4081 25.5844 23.5636C25.6084 23.3265 25.652 23.0918 25.7147 22.8618C26.0159 21.8839 26.6667 21.0512 27.5428 20.5225C27.8585 20.327 28.1947 20.1668 28.5453 20.0446C30.624 19.2927 33.3777 19.7104 34.8515 21.2978C35.5041 22.0312 35.8789 22.9701 35.9109 23.9513L35.8407 26.2004L35.8274 26.2104Z" fill="#1A1F36"/>
</svg>
