<svg width="44" height="28" viewBox="0 0 44 28" fill="none" xmlns="http://www.w3.org/2000/svg">
<path d="M17.4078 15.2503H22.1839C22.7894 15.2503 23.0909 15.9911 22.6679 16.4245C22.5743 16.521 22.4456 16.5754 22.3112 16.5754H17.4078C17.01 16.5754 16.6478 16.741 16.3854 17.0068C16.1222 17.2736 15.9597 17.6407 15.9597 18.0438V24.2886C15.9597 24.6789 16.1112 25.034 16.3575 25.2981L16.3854 25.3247C16.6486 25.5915 17.0109 25.757 17.4078 25.757H18.5377V25.7596H22.2718L22.2735 25.757H25.9255C26.3225 25.757 26.6847 25.5915 26.9479 25.3256C27.2103 25.0588 27.3736 24.6918 27.3736 24.2886V19.0585C27.3736 18.8639 27.4417 18.6754 27.5667 18.5263C27.749 18.3086 27.932 18.092 28.1152 17.8767C28.3154 17.6415 28.6821 17.7349 28.6821 18.0438V24.2886C28.6821 25.0546 28.3715 25.7527 27.8721 26.2588L27.8696 26.2613C27.3694 26.7674 26.6805 27.083 25.9255 27.083H17.4078C16.6503 27.083 15.9605 26.7682 15.4604 26.2613L15.424 26.221C14.9466 25.7184 14.6512 25.0365 14.6512 24.2886V18.0438C14.6512 17.2744 14.961 16.5754 15.4604 16.0702C15.9597 15.5642 16.6486 15.2503 17.4078 15.2503ZM3.81875 6.66993C3.58092 6.28655 3.13574 5.76593 3.13574 5.3165C3.13574 5.06262 3.33294 4.73155 3.61563 4.65779C3.59277 4.27783 3.57839 3.89187 3.57839 3.5102C3.57839 3.28462 3.58262 3.05648 3.59108 2.83262C3.60293 2.6911 3.62917 2.55044 3.66641 2.41407C3.83991 1.83941 4.21908 1.35139 4.72858 1.04519C4.9097 0.930261 5.10521 0.840203 5.30579 0.766442C5.67142 0.630926 5.49453 0.00824193 5.89486 0.000522702C6.83008 -0.0243504 8.36875 0.843634 8.96882 1.50148C9.35102 1.92993 9.5685 2.48335 9.58158 3.06077L9.54349 4.72126C9.71022 4.76243 9.89557 4.89365 9.93705 5.06262C10.0648 5.58667 9.52826 6.23937 9.27858 6.65621C9.13385 6.89808 8.73099 7.48217 8.45339 7.88271C8.26888 8.1486 8.08014 8.23437 8.24772 8.48824C8.84153 9.31534 9.83118 9.52563 10.76 9.81042C12.96 10.485 11.2048 12.8127 8.90358 12.8127H4.16667C1.86548 12.8127 0.109218 10.484 2.30949 9.80995C3.23867 9.52532 4.22884 9.31568 4.82253 8.48824C5.00619 8.21464 4.853 8.18119 4.64395 7.87671C4.33757 7.42899 3.87884 6.766 3.81875 6.66993ZM34.0818 6.66993C33.844 6.28655 33.3988 5.76593 33.3988 5.3165C33.3988 5.06262 33.596 4.73155 33.8787 4.65779C33.8559 4.27783 33.8415 3.89187 33.8415 3.5102C33.8415 3.28462 33.8457 3.05648 33.8542 2.83262C33.866 2.6911 33.8923 2.55044 33.9295 2.41407C34.103 1.83941 34.4822 1.35139 34.9925 1.04519C35.1728 0.930261 35.3683 0.840203 35.5697 0.766442C35.9345 0.630926 35.7576 0.00824193 36.1579 0.000522702C37.094 -0.0243504 38.6318 0.843634 39.2319 1.50148C39.6144 1.92972 39.832 2.48327 39.8447 3.06077L39.8066 4.72126C39.9733 4.76243 40.1595 4.89365 40.2001 5.06262C40.3279 5.58667 39.7913 6.23937 39.5417 6.65621C39.3969 6.89808 38.9941 7.48217 38.7165 7.88271C38.532 8.1486 38.3432 8.23437 38.5108 8.48824C39.1046 9.31534 40.0943 9.52563 41.023 9.81042C43.2231 10.485 41.4679 12.8127 39.1667 12.8127H34.4298C32.1286 12.8127 30.3724 10.484 32.5727 9.81002C33.502 9.52535 34.4922 9.31575 35.0856 8.48824C35.2693 8.21464 35.1161 8.18119 34.907 7.87671C34.6007 7.42899 34.1419 6.766 34.0818 6.66993ZM18.9499 6.66993C18.7129 6.28655 18.2669 5.76593 18.2669 5.3165C18.2669 5.06262 18.4649 4.73155 18.7467 4.65779C18.7247 4.27783 18.7104 3.89187 18.7104 3.5102C18.7104 3.28462 18.7146 3.05648 18.7222 2.83262C18.7349 2.6911 18.7603 2.55044 18.7975 2.41407C18.971 1.83941 19.351 1.35139 19.8605 1.04519C20.0417 0.930261 20.2372 0.840203 20.4378 0.766442C20.8025 0.630926 20.6257 0.00824193 21.026 0.000522702C21.962 -0.0243504 23.4999 0.843634 24.0999 1.50148C24.4827 1.92964 24.7005 2.48317 24.7135 3.06077L24.6755 4.72126C24.8422 4.76243 25.0275 4.89365 25.069 5.06262C25.1968 5.58667 24.6602 6.23937 24.4105 6.65621C24.265 6.89808 23.863 7.48217 23.5845 7.88271C23.4 8.1486 23.2121 8.23437 23.3788 8.48824C23.9727 9.31534 24.9623 9.52563 25.8911 9.81042C28.0912 10.485 26.3359 12.8127 24.0347 12.8127H19.2986C16.9974 12.8127 15.2412 10.484 17.4415 9.80995C18.3706 9.52532 19.3608 9.31568 19.9545 8.48824C20.1373 8.21464 19.985 8.18119 19.7759 7.87671C19.4695 7.42899 19.01 6.766 18.9499 6.66993ZM3.05872 15.2503H10.0107C10.7673 15.2503 11.4563 15.5651 11.9564 16.072C12.4575 16.5771 12.7681 17.2762 12.7681 18.0438V24.2886C12.7681 25.0563 12.4566 25.7544 11.9564 26.2613L11.9167 26.2982C11.419 26.7828 10.7462 27.083 10.0107 27.083H3.05872C2.30462 27.083 1.614 26.7674 1.1138 26.2605C0.61276 25.7562 0.302148 25.0571 0.302148 24.2886V18.0438C0.302148 17.2744 0.61276 16.5754 1.11126 16.0702C1.61061 15.5642 2.30039 15.2503 3.05872 15.2503ZM10.0107 16.5754H3.05872C2.66094 16.5754 2.2987 16.741 2.03633 17.0068C1.77396 17.2736 1.61061 17.6407 1.61061 18.0438V24.2886C1.61061 24.6909 1.7748 25.058 2.03717 25.3239V25.3265C2.2987 25.5923 2.66094 25.757 3.05872 25.757H10.0107C10.3949 25.757 10.7453 25.6026 11.0051 25.353L11.0322 25.3239C11.2954 25.0571 11.4596 24.69 11.4596 24.2886V18.0438C11.4596 17.6415 11.2954 17.2744 11.0322 17.0077V17.0051C10.8982 16.8689 10.739 16.7609 10.5637 16.6872C10.3884 16.6134 10.2005 16.5755 10.0107 16.5754ZM33.3227 15.2503H40.2746C41.0312 15.2503 41.7193 15.5651 42.2195 16.072C42.7206 16.5771 43.0312 17.2762 43.0312 18.0438V24.2886C43.0312 25.0563 42.7197 25.7544 42.2204 26.2613L42.1798 26.2982C41.6829 26.7828 41.0092 27.083 40.2746 27.083H33.3227C32.5669 27.083 31.8779 26.7682 31.3777 26.2613H31.3752C30.8767 25.7562 30.5652 25.0571 30.5652 24.2886V18.0438C30.5652 17.2744 30.8758 16.5754 31.3752 16.0702L31.415 16.0325C31.9109 15.5488 32.5838 15.2503 33.3227 15.2503ZM40.2746 16.5754H33.3227C32.9376 16.5754 32.5863 16.7298 32.3257 16.9794L32.2994 17.0068C32.037 17.2736 31.8737 17.6407 31.8737 18.0438V24.2886C31.8737 24.6909 32.0379 25.058 32.3003 25.3239C32.5626 25.5915 32.9249 25.757 33.3227 25.757H40.2746C40.658 25.757 41.0092 25.6026 41.2682 25.353L41.2953 25.3239C41.5585 25.0571 41.7227 24.69 41.7227 24.2886V18.0438C41.7227 17.6415 41.5594 17.2744 41.2962 17.0077V17.0051C41.0346 16.741 40.6732 16.5754 40.2746 16.5754ZM19.8225 19.507C20.4564 19.8767 20.8694 20.1846 21.3611 20.7344C22.6366 18.6536 23.5904 17.8861 25.3906 16.2497L25.7594 15.9311C25.9022 15.8079 26.0845 15.74 26.2731 15.74C26.9512 15.74 27.3116 16.542 26.8679 17.0547C24.7868 19.459 23.1191 21.6292 21.4441 24.6712C20.2583 22.6453 19.4594 21.3408 17.7354 19.9847L19.8225 19.507Z" fill="#1A1F36"/>
</svg>
