<svg width="49" height="36" viewBox="0 0 49 36" fill="none" xmlns="http://www.w3.org/2000/svg">
<path d="M10.2681 27.4989C10.2681 28.1682 9.72583 28.706 9.0599 28.706C8.38997 28.706 7.85164 28.1642 7.85164 27.4989C7.85164 22.9058 9.71387 18.7469 12.7285 15.7353C15.7432 12.7237 19.9062 10.8633 24.504 10.8633C29.1017 10.8633 33.2648 12.7237 36.2795 15.7353C39.2941 18.7469 41.1563 22.9058 41.1563 27.4989C41.1563 28.1682 40.614 28.706 39.9481 28.706C39.2821 28.706 38.7398 28.1642 38.7398 27.4989C38.7398 23.5711 37.1488 20.0177 34.5728 17.4443C31.9967 14.8709 28.4398 13.2814 24.508 13.2814C20.5762 13.2814 17.0192 14.8748 14.4432 17.4443C11.8592 20.0177 10.2681 23.5751 10.2681 27.4989ZM35.0194 36C34.9556 34.0958 35.0632 34.0679 32.8341 33.2354C31.5262 32.7454 29.8554 32.1239 28.6551 31.379C27.2435 32.6856 26.3383 34.1795 26.3064 36H35.0194ZM13.9806 36C14.0444 34.0958 13.9368 34.0679 16.1659 33.2354C17.4738 32.7454 19.1446 32.1239 20.3449 31.379C21.7565 32.6856 22.6617 34.1795 22.6936 36H13.9806ZM21.6608 29.5824C21.7206 29.1004 20.2931 27.2719 20.0339 26.3915C19.4756 25.5071 19.2762 24.0969 19.8863 23.1608C20.1296 22.7903 20.0259 22.125 20.0259 21.6151C20.0259 16.5201 28.9622 16.5161 28.9622 21.6151C28.9622 22.2605 28.8146 22.7505 29.1655 23.2564C29.7517 24.1049 29.4487 25.6067 28.9542 26.3955C28.6392 27.3157 27.1438 29.0605 27.2475 29.5864C27.3352 32.1996 21.6409 32.112 21.6608 29.5824ZM49 14.0542L46.9504 16.6993L48.4058 19.711L45.2556 18.5796L42.8391 20.8941L42.9428 17.5518L39.9919 15.9703L43.206 15.0342L43.8001 11.7397L45.6823 14.5044L49 14.0542ZM38.5923 3.65298L38.1417 6.96736L40.9091 8.85161L37.6153 9.44915L36.6782 12.66L35.0951 9.71207L31.7495 9.81565L34.0663 7.40157L32.9299 4.25053L35.9445 5.70455L38.5923 3.65298ZM0 14.0542L3.31771 14.5044L5.20386 11.7397L5.802 15.0302L9.01603 15.9664L6.06519 17.5479L6.16886 20.8901L3.74837 18.5756L0.594157 19.707L2.04964 16.6954L0 14.0542ZM10.4077 3.65298L13.0555 5.70056L16.0702 4.24654L14.9417 7.3936L17.2585 9.80768L13.9128 9.70411L12.3298 12.652L11.3927 9.44119L8.09489 8.84763L10.8623 6.96337L10.4077 3.65298ZM24.5 0L25.7681 3.09527L29.1057 3.34226L26.5536 5.50537L27.3512 8.756L24.504 6.99524L21.6568 8.756L22.4543 5.50537L19.8943 3.34226L23.2319 3.09527L24.5 0Z" fill="#1A1F36"/>
</svg>
