<svg width="38" height="38" viewBox="0 0 38 38" fill="none" xmlns="http://www.w3.org/2000/svg">
<path d="M31.4319 4.56668C31.0593 4.19336 30.6214 4.0093 30.1145 4.0093C29.6083 4.0093 29.1645 4.19336 28.7971 4.56668L26.7895 6.56836C26.2514 6.21953 25.6814 5.91523 25.0862 5.64285C24.491 5.37047 23.8824 5.13668 23.2678 4.93406V1.85547C23.2678 1.33594 23.0912 0.898789 22.7297 0.538086C22.369 0.177383 21.9319 0 21.4124 0H17.5493C17.055 0 16.6253 0.177383 16.2512 0.538086C15.8838 0.898789 15.6997 1.33594 15.6997 1.85547V4.6743C15.054 4.8257 14.4269 5.0157 13.825 5.25023C13.2171 5.48477 12.6412 5.75047 12.0964 6.04809L9.87283 3.85641C9.52475 3.48977 9.10096 3.29977 8.58736 3.29977C8.08045 3.29977 7.64404 3.48977 7.26998 3.85641L4.56619 6.56836C4.19287 6.94168 4.00881 7.37883 4.00881 7.88426C4.00881 8.39117 4.19287 8.835 4.56619 9.20164L6.56787 11.21C6.21904 11.7488 5.91549 12.3181 5.64311 12.9133C5.36998 13.5086 5.13619 14.1171 4.93357 14.7309H1.85572C1.33545 14.7309 0.898301 14.9083 0.537598 15.2698C0.176895 15.6305 -0.000488281 16.0676 -0.000488281 16.5871V20.4502C-0.000488281 20.9438 0.176895 21.375 0.537598 21.7491C0.898301 22.1157 1.33545 22.2998 1.85572 22.2998H4.67381C4.82521 22.9455 5.01521 23.5726 5.24975 24.1738C5.48502 24.7824 5.75072 25.3709 6.0476 25.9409L3.85666 28.1259C3.48928 28.4748 3.29928 28.8986 3.29928 29.4121C3.29928 29.9183 3.48928 30.3555 3.85666 30.7295L6.56787 33.4719C6.94119 33.82 7.37834 33.9914 7.88525 33.9914C8.39143 33.9914 8.83451 33.82 9.20264 33.4719L11.2095 31.4324C11.7483 31.7805 12.3183 32.084 12.9136 32.3571C13.5088 32.6288 14.1167 32.8641 14.7312 33.0659V36.1445C14.7312 36.6641 14.9086 37.1005 15.2693 37.4612C15.63 37.8226 16.0679 38 16.5867 38H20.4497C20.944 38 21.3745 37.8226 21.7486 37.4612C22.1152 37.1005 22.2993 36.6641 22.2993 36.1445V33.3257C22.945 33.1743 23.5721 32.9843 24.1733 32.7498C24.7819 32.5152 25.3712 32.2495 25.9404 31.9519L28.1254 34.1436C28.4743 34.511 28.904 34.7002 29.425 34.7002C29.9497 34.7002 30.3802 34.511 30.729 34.1436L33.4714 31.4324C33.8195 31.0583 33.991 30.6219 33.991 30.115C33.991 29.6088 33.8195 29.165 33.4714 28.7976L31.4319 26.79C31.7807 26.2512 32.0843 25.6819 32.3567 25.0859C32.6283 24.4914 32.8636 23.8829 33.0662 23.2683H36.144C36.6636 23.2683 37.1 23.0902 37.4607 22.7302C37.8221 22.3688 37.9995 21.9324 37.9995 21.4129V17.5498C37.9995 17.0555 37.8221 16.6257 37.4607 16.2509C37.1 15.8836 36.6636 15.7002 36.144 15.7002H33.3252C33.1738 15.0798 32.9838 14.4586 32.7493 13.8448C32.5147 13.2236 32.249 12.6417 31.9514 12.0962L34.1431 9.87332C34.5105 9.52523 34.6997 9.1007 34.6997 8.58785C34.6997 8.08094 34.5105 7.64453 34.1431 7.27047L31.4319 4.56668ZM27.839 23.7136C26.1527 26.8694 22.8262 29.0158 18.9995 29.0158C15.1713 29.0158 11.8471 26.8694 10.1608 23.7151C10.3582 22.8534 10.684 22.1016 11.6378 21.5746C12.9559 20.8406 15.2255 20.8955 16.3054 19.924L17.7972 23.8413L18.5468 21.706L18.1794 21.3038C17.9033 20.9 17.9983 20.4413 18.5104 20.3582C18.6833 20.3307 18.8778 20.3478 19.0648 20.3478C19.2645 20.3478 19.4864 20.3293 19.6749 20.3716C20.1506 20.4762 20.1996 20.9371 19.9629 21.3038L19.5955 21.706L20.3458 23.8413L21.6951 19.924C22.6689 20.7998 25.2896 20.9764 26.362 21.5746C27.3187 22.1105 27.643 22.8542 27.839 23.7136ZM16.03 17.2974C15.8949 17.2996 15.7844 17.2826 15.6641 17.2158C15.5046 17.1275 15.3917 16.9753 15.3153 16.8039C15.1542 16.4432 15.0266 15.4954 15.4318 15.2237L15.3561 15.1748L15.3479 15.0701C15.3324 14.8794 15.3287 14.6486 15.3242 14.4059C15.3094 13.5152 15.2908 12.4346 14.5546 12.2186L14.2391 12.1251L14.4477 11.8743C15.0422 11.1588 15.6634 10.5331 16.2898 10.0529C16.9986 9.50891 17.7192 9.14746 18.4236 9.04281C19.1487 8.93594 19.8508 9.09848 20.4995 9.60836C20.6902 9.75902 20.8765 9.94086 21.0561 10.1524C21.7471 10.2177 22.3134 10.5806 22.7171 11.0987C22.9576 11.4074 23.1409 11.7733 23.2582 12.1622C23.374 12.5496 23.4244 12.9616 23.4029 13.3668C23.3636 14.0941 23.0912 14.8029 22.5412 15.321C22.6377 15.3239 22.729 15.3455 22.8092 15.3885C23.1164 15.5481 23.1261 15.8947 23.0459 16.1864C22.9658 16.4298 22.8648 16.7118 22.7691 16.9493C22.6533 17.2692 22.4833 17.3293 22.1553 17.2945C21.4183 20.5193 16.9615 20.6291 16.03 17.2974ZM18.9995 7.22668C25.504 7.22668 30.7728 12.4992 30.7728 19C30.7728 25.5045 25.5003 30.7733 18.9995 30.7733C12.4957 30.7733 7.22619 25.5008 7.22619 19C7.22619 12.4955 12.4987 7.22668 18.9995 7.22668Z" fill="#1A1F36"/>
</svg>
