<svg width="50" height="38" viewBox="0 0 50 38" fill="none" xmlns="http://www.w3.org/2000/svg">
<path d="M16.7679 29.3373L13.7566 32.2613L13.6508 32.3545C14.0513 33.1721 14.1497 34.1039 13.9289 34.9864C13.7081 35.869 13.1821 36.6461 12.4432 37.1813C11.7043 37.7166 10.7996 37.9758 9.88779 37.9136C8.97601 37.8514 8.11534 37.4717 7.45671 36.8411C6.79809 36.2106 6.38356 35.3694 6.28582 34.465C6.18809 33.5607 6.41338 32.651 6.9222 31.8955C7.43102 31.1399 8.19087 30.5868 9.06851 30.333C9.94614 30.0793 10.8855 30.1411 11.7219 30.5078C11.7675 30.4459 11.8179 30.3877 11.8725 30.3336L14.4118 27.8713C14.6821 28.1214 14.9704 28.3515 15.2745 28.5598C15.7394 28.8773 16.2407 29.1384 16.7679 29.3373ZM31.4665 10.1531C31.8421 10.1633 32.214 10.2302 32.5693 10.3516C33.3633 10.6293 34.0665 11.1164 34.604 11.7609C35.1951 12.4473 35.5676 13.2931 35.6743 14.1908C35.7192 14.6137 35.7014 15.0408 35.6214 15.4584C36.0007 15.8022 36.3258 16.2009 36.5858 16.641C36.9881 17.3096 37.1939 18.0771 37.18 18.8563C37.1507 19.679 36.8664 20.4727 36.3661 21.1283C36.0097 21.6 35.5781 22.0105 35.0883 22.3432C35.1288 23.4118 34.8236 24.4652 34.2174 25.3482C33.6427 26.2091 32.7615 26.8212 31.7514 27.0613C31.4531 28.0059 30.8102 28.8051 29.9492 29.3013C29.0883 29.7976 28.0718 29.9549 27.1001 29.7423C26.289 29.5186 25.599 28.9861 25.1794 28.2601C24.9355 28.6522 24.615 28.9915 24.2368 29.258C23.8586 29.5245 23.4305 29.7126 22.9778 29.8112C22.462 29.9064 21.9316 29.8903 21.4226 29.7638C20.9136 29.6373 20.4378 29.4035 20.0275 29.0781L19.9665 29.0255C19.3548 28.5467 18.9163 27.8829 18.7172 27.1342C18.4051 27.112 18.0973 27.0494 17.8016 26.9479C17.0244 26.6734 16.3328 26.2015 15.7954 25.5791C15.2158 24.9182 14.8388 24.1058 14.7088 23.2382C14.6427 22.7739 14.6537 22.3019 14.7414 21.841C14.4037 21.5306 14.1094 21.1765 13.8665 20.7881L13.8339 20.7071C13.4324 20.0493 13.2211 19.2939 13.2235 18.5242C13.2379 17.6677 13.5226 16.8375 14.0374 16.151C14.3788 15.6856 14.7906 15.2758 15.2582 14.936C15.2582 14.8091 15.2582 14.6836 15.2582 14.5594C15.2935 13.4814 15.6822 12.4445 16.3651 11.607C16.9558 10.8739 17.7897 10.3742 18.7172 10.1977C18.7463 10.0851 18.7816 9.97425 18.823 9.86557C19.1308 9.06651 19.7055 8.39723 20.4507 7.97024C21.2052 7.52218 22.099 7.36647 22.9615 7.53285C23.828 7.71716 24.5884 8.22989 25.0817 8.96245C25.5756 8.2305 26.3357 7.71796 27.2018 7.53285C27.9861 7.37859 28.7997 7.49426 29.5092 7.86089C30.1996 8.20784 30.7674 8.75597 31.1369 9.43224C31.261 9.66058 31.3579 9.90249 31.4259 10.1531H31.4665ZM26.1234 10.8173V25.7208C26.1913 25.8252 26.2371 25.9424 26.2577 26.065C26.4612 27.28 26.9862 27.8956 27.5721 28.0535C27.8656 28.1136 28.1688 28.1085 28.46 28.0385C28.7512 27.9685 29.0233 27.8353 29.2569 27.6485C29.4958 27.4976 29.697 27.2944 29.8451 27.0544C29.9932 26.8143 30.0843 26.5439 30.1114 26.2635C30.1114 25.652 29.6516 24.9513 28.4023 24.3155C28.2992 24.2623 28.2076 24.1894 28.1327 24.101C28.0579 24.0126 28.0013 23.9104 27.9661 23.8002C27.931 23.69 27.918 23.574 27.9279 23.4588C27.9378 23.3437 27.9704 23.2315 28.0239 23.1289C28.0773 23.0262 28.1505 22.9351 28.2394 22.8606C28.3282 22.7861 28.4309 22.7298 28.5416 22.6948C28.6523 22.6598 28.7689 22.6469 28.8846 22.6568C29.0004 22.6666 29.113 22.6991 29.2162 22.7523C30.6323 23.4731 31.4055 24.3722 31.7188 25.2551C32.1538 25.0619 32.5239 24.7484 32.785 24.352C33.2395 23.6834 33.4307 22.8718 33.3222 22.0719C33.2827 21.892 33.3007 21.7043 33.3736 21.5351C33.4466 21.3659 33.5709 21.2237 33.7291 21.1283C34.2034 20.8665 34.6189 20.5109 34.9499 20.0834C35.2344 19.7164 35.3978 19.2708 35.4179 18.8077C35.4228 18.3571 35.3016 17.914 35.0679 17.5279C34.8283 17.1284 34.5099 16.7813 34.132 16.5074C33.9717 16.3989 33.8515 16.2412 33.7898 16.0584C33.7281 15.8756 33.7282 15.6776 33.7902 15.4949C33.9144 15.1347 33.9575 14.7517 33.9163 14.3731C33.8485 13.8263 33.619 13.3118 33.2571 12.8949C32.9229 12.4942 32.4875 12.1894 31.9956 12.012C31.8095 11.948 31.6145 11.9139 31.4177 11.9108C31.259 12.3566 31.0174 12.7688 30.7056 13.1257C30.6313 13.2137 30.5403 13.2863 30.4378 13.3394C30.3354 13.3924 30.2234 13.4248 30.1083 13.4348C29.9933 13.4447 29.8774 13.4321 29.7672 13.3974C29.6571 13.3628 29.5549 13.307 29.4664 13.233C29.378 13.1591 29.3051 13.0686 29.2518 12.9666C29.1985 12.8646 29.1659 12.7532 29.1559 12.6387C29.1459 12.5242 29.1586 12.4088 29.1934 12.2992C29.2282 12.1896 29.2843 12.0879 29.3586 11.9999C29.582 11.772 29.7272 11.4796 29.7733 11.1645C29.8193 10.8495 29.7639 10.528 29.615 10.2463C29.4113 9.88641 29.1036 9.59575 28.7319 9.41199C28.3781 9.224 27.9706 9.16117 27.5762 9.23379C27.0146 9.35124 26.4693 9.82103 26.1153 10.8011L26.1234 10.8173ZM29.5906 15.831C29.4006 15.6946 29.2729 15.4887 29.2355 15.2586C29.1981 15.0284 29.2541 14.793 29.3912 14.6039C29.5282 14.4149 29.7351 14.2878 29.9664 14.2506C30.1976 14.2133 30.4342 14.2691 30.6242 14.4055C30.7739 14.5141 30.9179 14.6303 31.0555 14.7538C32.0113 15.6053 32.6014 16.79 32.7036 18.0625C32.7978 19.3158 32.4384 20.5612 31.6904 21.5737C31.5788 21.7283 31.4592 21.877 31.3323 22.0192C31.1758 22.1927 30.9564 22.2972 30.7225 22.3097C30.4886 22.3223 30.2593 22.2418 30.085 22.0861C29.9107 21.9303 29.8057 21.712 29.7931 21.4792C29.7805 21.2465 29.8614 21.0182 30.0178 20.8448C30.1196 20.7314 30.201 20.6301 30.2701 20.541C30.7605 19.8628 30.9927 19.0331 30.9253 18.2002C30.8596 17.3775 30.4777 16.6116 29.8591 16.0619C29.7696 15.9809 29.6719 15.9039 29.5743 15.831H29.5906ZM24.3533 11.5949H24.3329H24.2597C23.926 10.2544 23.2912 9.63878 22.6319 9.50514C22.1936 9.42822 21.7421 9.51319 21.3623 9.74408C20.9715 9.96407 20.6673 10.3096 20.4996 10.7241C20.3042 11.2547 20.4263 11.9108 21.1018 12.5344C21.1865 12.6126 21.2549 12.7066 21.3031 12.8111C21.3513 12.9156 21.3784 13.0285 21.3827 13.1434C21.3871 13.2583 21.3686 13.3729 21.3285 13.4807C21.2883 13.5885 21.2272 13.6874 21.1486 13.7717C21.0701 13.856 20.9756 13.924 20.8706 13.972C20.7656 14.02 20.6522 14.0469 20.5367 14.0512C20.4213 14.0555 20.3061 14.0372 20.1978 13.9972C20.0895 13.9572 19.9901 13.8964 19.9054 13.8182C19.4176 13.3884 19.0431 12.8461 18.8148 12.2388C18.3989 12.3875 18.0336 12.65 17.7609 12.9961C17.3253 13.5364 17.0782 14.2031 17.0569 14.8955C17.0606 15.0229 17.0715 15.15 17.0894 15.2762C17.1124 15.4443 17.0863 15.6154 17.0141 15.7691C16.942 15.9228 16.8268 16.0526 16.6825 16.1429C16.221 16.413 15.8162 16.7692 15.4902 17.1918C15.1909 17.5798 15.0215 18.0515 15.0059 18.5404C15.009 18.986 15.1327 19.4225 15.364 19.804L15.4006 19.8566C15.6296 20.22 15.9267 20.5362 16.2756 20.7881C16.4319 20.8969 16.5487 21.053 16.6088 21.2332C16.669 21.4134 16.6691 21.6081 16.6092 21.7884C16.4718 22.1779 16.4299 22.5945 16.4872 23.0033C16.5709 23.5354 16.8052 24.0327 17.1627 24.437C17.4885 24.8212 17.9093 25.1143 18.3835 25.2875C18.5236 25.3343 18.6681 25.3669 18.8148 25.3847C19.1241 24.4289 19.938 23.4893 21.4192 22.7523C21.6281 22.6448 21.8712 22.6244 22.0952 22.6954C22.3192 22.7664 22.5057 22.9231 22.6136 23.1309C22.7215 23.3388 22.7421 23.5807 22.6707 23.8037C22.5994 24.0266 22.442 24.2121 22.2331 24.3196C20.9146 24.9878 20.4182 25.7411 20.4182 26.3931C20.4291 26.6396 20.4946 26.8807 20.61 27.0991C20.7254 27.3175 20.8877 27.5079 21.0856 27.6566L21.1303 27.6931C21.3384 27.8638 21.5808 27.9882 21.8412 28.058C22.1016 28.1279 22.3739 28.1415 22.6401 28.0981C23.2952 27.9644 23.9301 27.3489 24.2678 26.0002C24.2903 25.9131 24.326 25.8298 24.3736 25.7532V11.5949H24.3533ZM18.9939 14.9117C19.074 14.8212 19.1721 14.7481 19.2819 14.697C19.3918 14.646 19.511 14.6182 19.6322 14.6152C19.7534 14.6123 19.8739 14.6343 19.9861 14.6799C20.0983 14.7256 20.1999 14.7938 20.2843 14.8804C20.3688 14.9669 20.4343 15.0699 20.4768 15.1829C20.5193 15.2959 20.5379 15.4164 20.5314 15.5369C20.5248 15.6574 20.4933 15.7752 20.4388 15.883C20.3843 15.9907 20.308 16.0861 20.2147 16.1631C19.6278 16.7368 19.2829 17.5117 19.2503 18.3298C19.2213 19.1883 19.511 20.0274 20.0641 20.6868C20.2038 20.869 20.2664 21.0982 20.2386 21.3257C20.2109 21.5531 20.095 21.7608 19.9156 21.9044C19.7363 22.0481 19.5076 22.1163 19.2785 22.0946C19.0493 22.073 18.8377 21.9631 18.6887 21.7884C17.873 20.7963 17.449 19.542 17.4964 18.261C17.544 16.9952 18.0787 15.7961 18.9898 14.9117H18.9939ZM3.8965 14.6485C4.69928 14.6498 5.48205 14.8979 6.13765 15.359C6.79326 15.8201 7.28967 16.4715 7.55894 17.2242C7.61041 17.2202 7.66211 17.2202 7.71358 17.2242L10.7575 17.1837C10.6692 17.6144 10.6215 18.0523 10.615 18.4918C10.6129 18.9461 10.6579 19.3994 10.7493 19.8444L7.75427 19.8849C7.68651 19.8891 7.61856 19.8891 7.5508 19.8849C7.30203 20.5482 6.87563 21.1311 6.31779 21.5705C5.75995 22.0099 5.09194 22.289 4.38612 22.3775C3.6803 22.4661 2.96359 22.3608 2.31362 22.0729C1.66366 21.7851 1.10522 21.3258 0.698801 20.7447C0.292385 20.1636 0.0534855 19.4829 0.00798364 18.7764C-0.0375182 18.0698 0.112112 17.3644 0.440665 16.7364C0.769218 16.1084 1.26417 15.5819 1.8719 15.2139C2.47962 14.8458 3.17696 14.6503 3.88836 14.6485H3.8965ZM10.2081 9.41433e-05C11.242 9.41433e-05 12.2336 0.408855 12.9647 1.13645C13.6958 1.86405 14.1066 2.85089 14.1066 3.87987C14.1095 4.5691 13.9253 5.24632 13.5735 5.84L16.2389 8.36712L16.1168 8.44002C15.4492 8.84761 14.855 9.36369 14.3589 9.96682C14.306 10.0276 14.2571 10.0924 14.2083 10.1531L11.7016 7.77989C11.6225 7.70634 11.5528 7.62336 11.494 7.53285C10.9578 7.72375 10.3861 7.79541 9.81902 7.74279C9.25197 7.69017 8.70339 7.51455 8.21187 7.22828C7.72035 6.942 7.29783 6.55203 6.97401 6.0858C6.65019 5.61956 6.43295 5.08837 6.33756 4.52961C6.24217 3.97084 6.27096 3.39806 6.42189 2.85155C6.57282 2.30504 6.84223 1.79808 7.21118 1.36632C7.58012 0.934565 8.03964 0.588496 8.55741 0.352458C9.07517 0.116421 9.63862 -0.00385394 10.2081 9.41433e-05ZM39.9756 30.2405C40.8236 30.2382 41.6492 30.5111 42.3272 31.0179C43.0052 31.5247 43.4988 32.2377 43.7329 33.0488C43.9671 33.8599 43.9292 34.7248 43.6249 35.5125C43.3206 36.3002 42.7665 36.9677 42.0467 37.4137C41.3269 37.8598 40.4805 38.0601 39.636 37.9843C38.7915 37.9085 37.9948 37.5608 37.3667 36.9938C36.7387 36.4268 36.3135 35.6714 36.1557 34.8423C35.9979 34.0131 36.116 33.1554 36.4922 32.399L36.3905 32.3099L33.4524 29.5641C33.5501 29.4264 33.6396 29.2847 33.725 29.1348C34.0309 28.9823 34.326 28.8091 34.6081 28.6165C34.9422 28.3818 35.2553 28.1189 35.5441 27.8308L38.2502 30.3215C38.3244 30.3929 38.3912 30.4716 38.4496 30.5564C38.9382 30.3478 39.4643 30.2403 39.996 30.2405H39.9756ZM39.9756 0.42938C40.9883 0.461937 41.9485 0.885176 42.6533 1.6096C43.3581 2.33402 43.7521 3.30284 43.7521 4.31118C43.7521 5.31952 43.3581 6.28833 42.6533 7.01276C41.9485 7.73718 40.9883 8.16042 39.9756 8.19298C39.4238 8.19437 38.8783 8.07694 38.3764 7.84874C38.3194 7.93215 38.2539 8.00951 38.181 8.07958L36.3742 9.80888C36.008 9.41246 35.5986 9.05793 35.1534 8.75186C34.8438 8.53911 34.5187 8.34959 34.1808 8.18488L36.3172 6.15994C36.3663 6.11111 36.4194 6.06641 36.476 6.0263C36.1825 5.4345 36.0455 4.77797 36.078 4.11881C36.1106 3.45964 36.3115 2.81963 36.6619 2.25931C37.0122 1.69898 37.5004 1.23686 38.0803 0.916654C38.6601 0.596446 39.3125 0.428734 39.9756 0.42938ZM46.1041 14.6485C46.8167 14.6489 47.5156 14.8438 48.1248 15.2119C48.7339 15.58 49.2301 16.1072 49.5592 16.7362C49.8884 17.3653 50.038 18.0721 49.9918 18.7798C49.9456 19.4875 49.7053 20.1691 49.2971 20.7505C48.889 21.3319 48.3284 21.7907 47.6766 22.0773C47.0247 22.3638 46.3063 22.467 45.5996 22.3757C44.8929 22.2844 44.2248 22.0021 43.6681 21.5593C43.1113 21.1166 42.6871 20.5305 42.4417 19.8647C42.3807 19.8689 42.3195 19.8689 42.2585 19.8647H39.707C39.7606 19.5514 39.7918 19.2347 39.8006 18.917C39.8203 18.3283 39.7587 17.7396 39.6175 17.1675H42.2585C42.3195 17.1633 42.3807 17.1633 42.4417 17.1675C42.7173 16.4215 43.2163 15.7777 43.8712 15.3229C44.5261 14.8681 45.3055 14.6242 46.1041 14.6242V14.6485Z" fill="#1A1F36"/>
</svg>
