<svg width="50" height="37" viewBox="0 0 50 37" fill="none" xmlns="http://www.w3.org/2000/svg">
<path d="M8.19906 33.3039L12.8703 29.23C13.0845 29.0437 13.3609 28.9403 13.6475 28.9393H24.9593C25.0092 28.9398 25.0586 28.9306 25.1048 28.9122C25.1509 28.8938 25.1929 28.8665 25.2281 28.832C25.2634 28.7975 25.2912 28.7565 25.31 28.7113C25.3289 28.6661 25.3383 28.6177 25.3377 28.569V26.2433H27.6693V28.569C27.6661 29.2735 27.3787 29.9483 26.8696 30.4465C26.3606 30.9447 25.6711 31.226 24.9512 31.2291H14.0869L7.85319 36.6649C7.69061 36.8242 7.48359 36.9329 7.25812 36.9774C7.03266 37.0219 6.79877 37.0003 6.58581 36.9152C6.37286 36.8302 6.19031 36.6855 6.06107 36.4992C5.93184 36.313 5.86167 36.0936 5.85938 35.8685V31.2291H2.72217C2.00157 31.227 1.31103 30.9462 0.801105 30.4479C0.29118 29.9496 0.0032186 29.2742 0 28.569L0 11.3854C0.00847092 10.6817 0.298117 10.0093 0.806911 9.51211C1.31571 9.0149 2.0032 8.73244 2.72217 8.7252H17.6392V11.015H2.72217C2.62328 11.0206 2.52987 11.0613 2.45945 11.1295C2.38904 11.1977 2.34645 11.2887 2.33968 11.3854V28.569C2.34004 28.6174 2.35031 28.6652 2.36988 28.7097C2.38945 28.7541 2.41792 28.7943 2.45361 28.8278C2.52597 28.8962 2.62165 28.9359 2.72217 28.9393H7.02718C7.33798 28.9393 7.63605 29.0601 7.85582 29.2752C8.07559 29.4903 8.19906 29.782 8.19906 30.0862V33.3039ZM8.28451 25.5464L12.0443 14.4318H15.6372L19.397 25.5464H16.4185L15.7878 23.5234H11.8612L11.2467 25.5464H8.28451ZM12.5285 21.2017H15.1204L13.8346 16.65L12.5285 21.2017ZM31.1808 5.31636H34.7209V4.42432C34.7209 4.35145 34.7504 4.28156 34.8031 4.23003C34.8558 4.1785 34.9272 4.14955 35.0016 4.14955H36.8937C36.9304 4.14954 36.9667 4.15668 37.0006 4.17053C37.0344 4.18439 37.0651 4.20469 37.0908 4.23026C37.1166 4.25583 37.1369 4.28616 37.1505 4.31947C37.1642 4.35279 37.171 4.38843 37.1704 4.42432V5.31636H41.1418C41.1784 5.31635 41.2148 5.32349 41.2486 5.33734C41.2824 5.3512 41.3131 5.37151 41.3389 5.39707C41.3646 5.42264 41.3849 5.45297 41.3986 5.48628C41.4122 5.5196 41.419 5.55524 41.4185 5.59114V7.36724C41.4185 7.43906 41.3893 7.50793 41.3374 7.55872C41.2855 7.6095 41.2151 7.63803 41.1418 7.63803H40.5111C40.4277 8.1615 40.304 8.67803 40.1408 9.18316V9.20706C39.9539 9.77688 39.717 10.3298 39.4328 10.8597C39.1719 11.3323 38.8811 11.7885 38.562 12.2256C38.2894 12.6239 37.9883 12.9823 37.6668 13.3526C38.1267 13.8966 38.6272 14.4064 39.1642 14.8778C39.8149 15.4252 40.5073 15.9231 41.2354 16.3672C41.2661 16.3863 41.2927 16.4111 41.3137 16.4402C41.3347 16.4693 41.3495 16.5022 41.3575 16.537C41.3654 16.5718 41.3663 16.6078 41.36 16.6429C41.3537 16.678 41.3404 16.7115 41.3208 16.7415L40.3483 18.2269C40.3282 18.2597 40.3013 18.288 40.2693 18.31C40.2374 18.332 40.2011 18.3472 40.1628 18.3547C40.1245 18.3622 40.0851 18.3618 40.0469 18.3535C40.0088 18.3452 39.9729 18.3292 39.9414 18.3066C39.1439 17.8216 38.3849 17.2785 37.6709 16.6818C37.0905 16.175 36.5467 15.6294 36.0433 15.0491C35.5225 15.5031 35.0545 15.9292 34.5866 16.3274C34.0332 16.7734 33.4513 17.2035 32.7677 17.6654C32.737 17.6886 32.7018 17.7053 32.6642 17.7145C32.6265 17.7237 32.5874 17.7252 32.5491 17.7188C32.5109 17.7125 32.4744 17.6984 32.442 17.6776C32.4096 17.6567 32.382 17.6296 32.3608 17.5977L31.3314 16.1402C31.3077 16.1102 31.2906 16.0757 31.2812 16.0388C31.2718 16.002 31.2704 15.9637 31.2768 15.9263C31.2833 15.8889 31.2977 15.8532 31.319 15.8215C31.3403 15.7897 31.368 15.7627 31.4006 15.742C32.076 15.288 32.6213 14.8699 33.1746 14.4358C33.6466 14.0376 34.1024 13.6393 34.5947 13.1774C34.184 12.6087 33.8077 12.017 33.4676 11.4053C33.0799 10.6775 32.7729 9.91122 32.5521 9.11944C32.5422 9.08519 32.5392 9.04936 32.5435 9.014C32.5477 8.97864 32.5591 8.94445 32.5768 8.91337C32.5946 8.8823 32.6184 8.85497 32.647 8.83293C32.6756 8.81089 32.7083 8.79458 32.7433 8.78493L34.4808 8.31104C34.5158 8.30133 34.5524 8.29847 34.5885 8.30263C34.6247 8.30678 34.6596 8.31787 34.6914 8.33525C34.7231 8.35264 34.751 8.37598 34.7736 8.40394C34.7961 8.4319 34.8127 8.46394 34.8226 8.49821C35.1021 9.54931 35.5736 10.5423 36.2142 11.4292L36.731 10.7522C36.954 10.4356 37.1592 10.1072 37.3454 9.76856C37.5427 9.39609 37.7087 9.00853 37.8418 8.60971C37.9487 8.29066 38.0383 7.96632 38.1104 7.63803H31.193C31.1193 7.63804 31.0485 7.60964 30.9959 7.55896C30.9434 7.50829 30.9133 7.43942 30.9123 7.36724V5.57521C30.9123 5.50233 30.9419 5.43244 30.9945 5.38091C31.0472 5.32938 31.1186 5.30043 31.193 5.30043L31.1808 5.31636ZM42.1672 27.9437L35.9131 22.5039H25.0407C24.3207 22.4998 23.6314 22.2183 23.122 21.7204C22.6125 21.2225 22.3239 20.5483 22.3185 19.8438V2.66415C22.3249 1.95689 22.6176 1.28096 23.1323 0.784511L23.2137 0.71283C23.7102 0.260019 24.3621 0.00569452 25.0407 0L47.2778 0C47.9993 0.00644006 48.6886 0.292906 49.1943 0.796458L49.2716 0.876104C49.7355 1.36447 49.9954 2.00534 50 2.67212V19.8438C49.9947 20.5483 49.706 21.2225 49.1966 21.7204C48.6871 22.2183 47.9978 22.4998 47.2778 22.5039H44.1447V27.1313C44.1413 27.3564 44.0703 27.5755 43.9405 27.7614C43.8108 27.9472 43.628 28.0916 43.415 28.1765C43.202 28.2615 42.9682 28.2831 42.7427 28.2389C42.5172 28.1947 42.3099 28.0865 42.1468 27.9278L42.1672 27.9437ZM37.1338 20.5048L41.8009 24.5787V21.361C41.8009 21.0568 41.9244 20.7651 42.1442 20.55C42.3639 20.3349 42.662 20.2141 42.9728 20.2141H47.2778C47.3273 20.2135 47.3761 20.2034 47.4215 20.1842C47.4669 20.1651 47.5079 20.1374 47.5423 20.1026C47.5788 20.0694 47.608 20.0294 47.6283 19.9849C47.6485 19.9405 47.6594 19.8924 47.6603 19.8438V2.66415C47.6562 2.57982 47.6249 2.49894 47.5708 2.43318L47.5423 2.38937C47.4716 2.32044 47.3775 2.27934 47.2778 2.27389H25.0407C24.9563 2.28728 24.879 2.32793 24.821 2.38937H24.7762C24.7407 2.42302 24.7123 2.46322 24.6928 2.50765C24.6732 2.55207 24.6629 2.59985 24.6623 2.64822V19.8438C24.6617 19.8925 24.6711 19.9409 24.69 19.9861C24.7088 20.0313 24.7366 20.0723 24.7719 20.1068C24.8071 20.1413 24.8491 20.1686 24.8952 20.187C24.9414 20.2054 24.9908 20.2146 25.0407 20.2141H36.3566C36.6434 20.214 36.9202 20.3175 37.1338 20.5048Z" fill="#1A1F36"/>
</svg>
