<svg width="44" height="30" viewBox="0 0 44 30" fill="none" xmlns="http://www.w3.org/2000/svg">
<path fill-rule="evenodd" clip-rule="evenodd" d="M0 29.4978C0.361659 24.807 -0.558602 25.0111 3.36951 23.5394C5.33178 22.8054 7.83474 21.8744 9.63587 20.75L13.0054 29.4978H0ZM31.6756 6.33021L33.2153 6.5916C33.3729 6.61667 33.4803 6.76706 33.4516 6.92462L32.8178 10.7202C32.7928 10.8778 32.6424 10.9852 32.4848 10.9566L30.9451 10.6988C30.7875 10.6737 30.6801 10.5233 30.7088 10.3657L31.3426 6.57012C31.3676 6.41257 31.518 6.30514 31.6756 6.33021ZM36.1301 4.12087C36.4094 3.38323 37.5373 4.29633 37.4156 5.53886C37.3762 5.91842 37.2652 6.34811 37.0897 6.82436L38.8729 7.12156C39.6106 7.27553 40.1692 7.91291 39.564 8.71143C39.6034 9.10889 39.5461 9.55649 39.2346 9.6854C39.1701 10.2905 38.941 10.6343 38.5829 10.8778C38.5113 11.175 38.4039 11.4292 38.2248 11.6119C37.9276 11.9091 37.7486 11.7981 37.369 11.7336L34.3576 11.2287C33.8813 11.1499 33.6414 10.9745 33.3943 10.5305L33.9565 7.17527C34.8947 7.08217 35.5786 5.93274 35.9546 5.17004L36.1301 4.12087ZM16.8511 24.8464H17.3202C17.7428 24.8464 18.0901 24.4991 18.0901 24.0765V22.8269C18.0901 22.4043 17.7428 22.057 17.3202 22.057H14.5308C14.1083 22.057 13.7609 22.4043 13.7609 22.8269V24.0765C13.7609 24.4991 14.1083 24.8464 14.5308 24.8464H15.007L14.0939 29.4978H17.732L16.8511 24.8464ZM31.1026 1.20253C30.6909 1.14882 30.3005 1.17031 29.9425 1.26699C29.5844 1.36367 29.2406 1.53555 28.9148 1.78262C28.5925 2.02969 28.3383 2.31616 28.1485 2.63843C27.9623 2.9607 27.8406 3.32952 27.7833 3.74131L26.9668 9.89666C26.9131 10.3085 26.9346 10.6988 27.0313 11.0568C27.128 11.4149 27.2999 11.7587 27.5469 12.0845C27.8012 12.4068 28.0876 12.6718 28.4099 12.8508C28.7322 13.037 29.0938 13.1588 29.5056 13.2125L32.2127 13.5705C32.5278 13.6135 32.757 13.9071 32.714 14.2258C32.7033 14.2974 32.6818 14.3583 32.6567 14.4192C32.5027 14.7844 32.3416 15.1497 32.1661 15.497C31.9799 15.8658 31.7902 16.2132 31.5825 16.5462C31.4786 16.718 31.3605 16.8792 31.2351 17.0475C31.8224 16.8756 32.381 16.6608 32.9074 16.4065C33.4588 16.1415 33.9816 15.8336 34.4686 15.4863C34.9663 15.1353 35.4211 14.7343 35.8472 14.301C35.9797 14.165 36.1623 14.1112 36.3377 14.1327L38.6652 14.4407C39.077 14.4944 39.4566 14.4729 39.8183 14.3762C40.1763 14.2795 40.5201 14.1077 40.8531 13.8606C41.1754 13.6135 41.4296 13.3271 41.6194 13.0048C41.8056 12.6825 41.9273 12.3137 41.9846 11.9019L42.801 5.74654C42.8548 5.33475 42.8333 4.94445 42.7366 4.58637C42.6399 4.22829 42.468 3.88096 42.221 3.55869C41.9739 3.23642 41.6874 2.98218 41.3652 2.7924C41.0429 2.6062 40.6741 2.48445 40.2623 2.42716L37.4084 2.03685L31.1026 1.20253ZM34.1141 0.425504L40.4198 1.25983C40.9748 1.33502 41.4833 1.5069 41.9452 1.7683C42.4 2.02969 42.8046 2.38777 43.1484 2.83895C43.4921 3.28655 43.732 3.76995 43.8681 4.27842C44.0006 4.78689 44.0364 5.32401 43.9612 5.88619L43.1448 12.0416C43.0696 12.6037 42.8977 13.1122 42.6363 13.567C42.3749 14.0217 42.0169 14.4263 41.5657 14.7701C41.1181 15.1139 40.6347 15.3466 40.1262 15.4898C39.6177 15.6223 39.0806 15.6581 38.5184 15.5829L36.4774 15.3108C36.062 15.7154 35.618 16.0914 35.1561 16.4244C34.6046 16.8183 34.0281 17.1621 33.4194 17.4485C32.8071 17.7457 32.1626 17.9892 31.4858 18.1826C30.8162 18.3759 30.1072 18.5156 29.3695 18.6087C29.1583 18.6373 28.9434 18.5442 28.8145 18.358C28.6319 18.0931 28.7035 17.7314 28.9685 17.5488C29.3409 17.3017 29.6632 17.0367 29.9317 16.7682C30.1931 16.5032 30.4151 16.2275 30.5906 15.9374V15.9303C30.784 15.6187 30.963 15.2965 31.1277 14.9706C31.1814 14.856 31.2387 14.7343 31.296 14.6161L29.3481 14.3583C28.793 14.2867 28.2846 14.1112 27.8226 13.8498C27.3679 13.5884 26.9633 13.2304 26.6195 12.7792C26.2758 12.3316 26.0358 11.8482 25.8998 11.3397C25.7673 10.8241 25.7351 10.287 25.8067 9.73553L26.6303 3.58017C26.7054 3.02515 26.8773 2.51668 27.1387 2.05476C27.4001 1.6 27.7582 1.19537 28.2094 0.851617C28.657 0.507862 29.1404 0.26795 29.6488 0.13188C30.1537 -0.00060831 30.6909 -0.0364161 31.2495 0.0387802L34.1141 0.425504ZM11.9705 18.0608C12.0565 17.3411 9.92234 14.5911 9.53203 13.2733C8.69771 11.9449 8.40051 9.83221 9.31002 8.42854C9.67168 7.86994 9.51771 6.87807 9.51771 6.1082C9.51771 -1.53676 22.9134 -1.54034 22.9134 6.1082C22.9134 7.07501 22.6914 7.80907 23.2142 8.57178C24.0915 9.84295 23.6403 12.0953 22.8991 13.2769C22.4264 14.6627 20.1848 17.2802 20.3388 18.0644C20.4785 21.9854 11.9455 21.8565 11.9705 18.0608ZM22.3655 20.349C24.0127 21.4017 26.3474 22.2683 28.213 22.8913C31.8797 24.1124 31.8689 24.2806 31.8439 29.4978H18.8886L22.3655 20.349Z" fill="#1A1F36"/>
</svg>
