<svg width="41" height="42" viewBox="0 0 41 42" fill="none" xmlns="http://www.w3.org/2000/svg">
<path d="M11.844 5.67301C11.844 4.69662 12.1335 3.74217 12.676 2.93033C13.2184 2.1185 13.9894 1.48576 14.8915 1.11211C15.7935 0.738465 16.7861 0.640703 17.7437 0.831186C18.7014 1.02167 19.581 1.49184 20.2714 2.18225C20.9618 2.87265 21.432 3.75229 21.6225 4.70991C21.813 5.66753 21.7152 6.66013 21.3415 7.56219C20.9679 8.46425 20.3352 9.23525 19.5233 9.7777C18.7115 10.3202 17.757 10.6097 16.7806 10.6097C15.4721 10.6074 14.2177 10.0866 13.2924 9.16127C12.3671 8.23595 11.8462 6.9816 11.844 5.67301ZM18.8453 15.1312C18.7787 15.3579 18.6491 15.5611 18.4716 15.7171L18.933 21.4658C18.9397 21.553 18.9263 21.6405 18.8938 21.7217C18.8614 21.8029 18.8108 21.8755 18.7458 21.934L17.1979 23.512H21.7678V19.3665C21.7678 19.2154 21.8278 19.0705 21.9346 18.9637C22.0415 18.8569 22.1864 18.7968 22.3374 18.7968C22.4885 18.7968 22.6334 18.8569 22.7403 18.9637C22.8471 19.0705 22.9071 19.2154 22.9071 19.3665V23.512H26.3235V18.9721C26.3235 17.0896 25.4816 15.378 24.1298 14.1392C22.9003 13.029 21.3452 12.3453 19.6959 12.1899L18.8453 15.1312ZM15.9017 14.912C15.924 14.9222 15.9455 14.9337 15.9663 14.9466C16.0585 14.981 16.1563 14.9983 16.2547 14.9974H17.3045C17.4029 14.9983 17.5006 14.981 17.5928 14.9466C17.6144 14.9337 17.6367 14.9222 17.6597 14.912C17.7017 14.8918 17.7351 14.8574 17.7541 14.8149L18.5246 12.1528H15.0346L15.8048 14.8149C15.8249 14.8575 15.8592 14.8918 15.9017 14.912ZM17.7771 21.2997L17.3641 16.1369H16.1947L15.7818 21.2997L16.7806 22.3147L17.7771 21.2997ZM10.6513 19.3665C10.6513 19.2154 10.7114 19.0705 10.8182 18.9637C10.925 18.8569 11.0699 18.7968 11.221 18.7968C11.3721 18.7968 11.517 18.8569 11.6238 18.9637C11.7307 19.0705 11.7907 19.2154 11.7907 19.3665V23.512H16.3628L14.7872 21.9088C14.7301 21.851 14.6863 21.7814 14.6588 21.7049C14.6313 21.6284 14.6208 21.5468 14.6281 21.4659H14.6258L15.0871 15.7172C14.9103 15.5606 14.7809 15.3576 14.7134 15.1312L13.8628 12.1899C12.2134 12.3453 10.6582 13.0291 9.42869 14.1395C8.07681 15.3782 7.23713 17.0899 7.23713 18.9723V23.512H10.6513V19.3665ZM32.8225 24.6516H27.5237C27.293 27.7912 26.9101 30.1973 24.3336 32.774C23.3419 33.7665 22.1643 34.5537 20.8682 35.0909C19.5721 35.628 18.1828 35.9045 16.7798 35.9045C15.3768 35.9045 13.9875 35.628 12.6914 35.0909C11.3953 34.5537 10.2177 33.7665 9.22598 32.774C6.64924 30.1973 6.26626 27.7912 6.03791 24.6516H0.736164C0.585081 24.6516 0.440186 24.7116 0.333354 24.8184C0.226522 24.9252 0.166504 25.0701 0.166504 25.2212C0.166504 25.7102 0.189616 26.2132 0.235758 26.7253C0.281928 27.2212 0.348036 27.7095 0.434082 28.1901C0.449155 28.3007 0.496301 28.4044 0.569689 28.4885C0.643077 28.5725 0.739489 28.6332 0.847004 28.663L3.8461 29.4959C3.9519 29.8189 4.06982 30.1326 4.19441 30.4348C4.32125 30.7393 4.46041 31.0415 4.61189 31.3414L3.07991 34.052C3.02709 34.1447 3.00166 34.2505 3.00656 34.3571C3.01145 34.4637 3.04648 34.5667 3.10758 34.6542C4.24679 36.3087 5.67806 37.7416 7.3312 38.8827C7.41956 38.9482 7.52511 38.9867 7.63495 38.9932C7.74479 38.9998 7.85416 38.9742 7.94969 38.9196L10.658 37.3879C10.9602 37.5401 11.2624 37.6808 11.5669 37.8054C11.8743 37.934 12.1867 38.0502 12.5035 38.1537L13.3362 41.155H13.3385C13.3667 41.2578 13.4234 41.3506 13.5023 41.4225C13.5811 41.4944 13.6787 41.5424 13.7837 41.561C14.2659 41.6486 14.7596 41.7179 15.2579 41.7616L15.2741 41.764C15.7863 41.8101 16.2868 41.8332 16.7806 41.8332C17.2696 41.8332 17.7725 41.8101 18.2846 41.764C18.7806 41.7202 19.2688 41.654 19.7495 41.5656C19.86 41.5514 19.9639 41.5049 20.0481 41.4318C20.1322 41.3588 20.1929 41.2624 20.2224 41.155L21.0551 38.1537C21.3781 38.0479 21.6899 37.9323 21.9941 37.8054C22.3016 37.6781 22.6041 37.5389 22.9007 37.3879L25.609 38.9197C25.7019 38.9729 25.8079 38.9987 25.9149 38.9942C26.0218 38.9897 26.1253 38.9551 26.2134 38.8943C27.0409 38.322 27.8153 37.6765 28.5272 36.9656C29.2333 36.2599 29.8742 35.4918 30.4419 34.6707C30.5074 34.5823 30.5458 34.4767 30.5524 34.3669C30.5589 34.2571 30.5333 34.1477 30.4788 34.0522L28.947 31.3417C29.0993 31.0418 29.24 30.7372 29.3646 30.4327C29.4932 30.1253 29.6094 29.8129 29.7129 29.4961L32.7119 28.6634C32.8152 28.6348 32.9083 28.5777 32.9806 28.4985C33.0528 28.4193 33.1012 28.3213 33.1201 28.2158C33.2078 27.7336 33.2747 27.2422 33.3209 26.7417L33.3232 26.7278C33.3693 26.2157 33.3924 25.7136 33.3924 25.2215C33.3924 25.1466 33.3777 25.0725 33.349 25.0034C33.3204 24.9342 33.2785 24.8714 33.2255 24.8184C33.1726 24.7655 33.1098 24.7235 33.0406 24.6949C32.9715 24.6663 32.8974 24.6515 32.8225 24.6516ZM10.0307 31.9689C11.3265 33.2648 12.9679 34.1602 14.7589 34.5482C16.5499 34.9362 18.4147 34.8004 20.1305 34.1569C21.8464 33.5134 23.3407 32.3895 24.4349 30.9196C25.5291 29.4496 26.177 27.6956 26.3011 25.8673L26.3818 24.6516H7.17715L7.25788 25.8673C7.41192 28.1701 8.39733 30.3385 10.0307 31.9689ZM40.283 16.3653L38.9958 11.5578C38.8831 11.687 38.7662 11.8124 38.6451 11.9338C37.4266 13.1555 35.8256 13.9218 34.1098 14.1045L35.0879 17.7563H35.0903C35.1229 17.8815 35.1979 17.9916 35.3025 18.0678C35.3626 18.1119 35.4308 18.1437 35.5032 18.1615C35.5757 18.1792 35.6509 18.1825 35.7246 18.1712C35.7983 18.1598 35.869 18.1341 35.9327 18.0954C35.9965 18.0567 36.052 18.0058 36.096 17.9457L37.4363 16.1279L39.4779 17.0206C39.6029 17.083 39.7464 17.0978 39.8816 17.0621C40.0271 17.0227 40.151 16.9272 40.2262 16.7966C40.3015 16.666 40.3219 16.5109 40.283 16.3653ZM26.7186 17.062C26.853 17.0976 26.9958 17.0829 27.12 17.0205L29.1616 16.1277L30.5019 17.9455C30.5652 18.0321 30.6517 18.0991 30.7515 18.1385C30.8512 18.178 30.9601 18.1885 31.0656 18.1687C31.171 18.1489 31.2687 18.0997 31.3473 18.0267C31.426 17.9537 31.4824 17.86 31.51 17.7563L32.4907 14.1045C30.774 13.9225 29.1719 13.1562 27.9527 11.9341C27.8328 11.812 27.7152 11.6872 27.6044 11.5581L26.3149 16.3655C26.2765 16.5114 26.2974 16.6666 26.373 16.7971C26.4487 16.9276 26.5729 17.0228 26.7186 17.062ZM28.7602 11.1284C27.7096 10.0781 27.0557 8.69608 26.9098 7.21772C26.764 5.73936 27.1353 4.25617 27.9604 3.02088C28.7856 1.78559 30.0135 0.874628 31.435 0.443221C32.8566 0.011814 34.3837 0.086655 35.7562 0.654991C37.1287 1.22333 38.2617 2.24999 38.9621 3.56005C39.6625 4.87011 39.887 6.38249 39.5973 7.83951C39.3076 9.29653 38.5217 10.608 37.3734 11.5505C36.2252 12.493 34.7856 13.0082 33.3001 13.0083C32.4568 13.0093 31.6217 12.8437 30.8426 12.5211C30.0636 12.1985 29.3559 11.7252 28.7602 11.1284ZM28.158 6.58617C28.1577 7.77613 28.57 8.92938 29.3248 9.8494C30.0795 10.7694 31.1298 11.3993 32.2969 11.6316C33.464 11.864 34.6755 11.6845 35.725 11.1237C36.7746 10.5629 37.5972 9.65555 38.0527 8.55622C38.5082 7.4569 38.5684 6.23363 38.2231 5.09488C37.8778 3.95612 37.1483 2.97234 36.1589 2.31117C35.1695 1.64999 33.9815 1.35235 32.7973 1.46895C31.613 1.58554 30.5058 2.10917 29.6644 2.9506C29.1861 3.42746 28.8068 3.99418 28.5483 4.61817C28.2897 5.24215 28.1571 5.91108 28.1581 6.5865L28.158 6.58617ZM30.4692 9.41901C29.8138 8.76412 29.4059 7.90224 29.3148 6.98025C29.2237 6.05826 29.4551 5.13321 29.9697 4.36275C30.4842 3.59228 31.25 3.02407 32.1365 2.75494C33.023 2.48581 33.9754 2.53242 34.8315 2.88683C35.6875 3.24123 36.3941 3.8815 36.8309 4.69853C37.2678 5.51555 37.4078 6.45878 37.2271 7.36747C37.0464 8.27616 36.5563 9.09408 35.8401 9.68186C35.124 10.2696 34.2261 10.5909 33.2997 10.5909C32.7741 10.5914 32.2535 10.4882 31.7679 10.2872C31.2822 10.0862 30.841 9.79129 30.4696 9.41942L30.4692 9.41901ZM31.558 7.20442L32.3077 7.95417C32.4147 8.06054 32.5594 8.12025 32.7103 8.12025C32.8611 8.12025 33.0058 8.06054 33.1128 7.95417L35.0415 6.02546C35.142 5.91745 35.1966 5.77467 35.194 5.62719C35.1913 5.4797 35.1315 5.339 35.0272 5.23469C34.9229 5.13039 34.7822 5.07061 34.6347 5.06794C34.4872 5.06527 34.3444 5.11991 34.2364 5.22037L32.7119 6.74568L32.3635 6.39737C32.3105 6.34451 32.2476 6.3026 32.1784 6.27405C32.1092 6.2455 32.0351 6.23086 31.9602 6.23096C31.8853 6.23107 31.8112 6.24592 31.7421 6.27467C31.673 6.30341 31.6102 6.3455 31.5573 6.39851C31.5045 6.45152 31.4625 6.51443 31.434 6.58363C31.4054 6.65284 31.3908 6.727 31.3909 6.80186C31.391 6.87673 31.4059 6.95084 31.4346 7.01996C31.4634 7.08909 31.5054 7.15188 31.5585 7.20474L31.558 7.20442Z" fill="white"/>
</svg>
