<svg width="60" height="50" viewBox="0 0 60 50" fill="none" xmlns="http://www.w3.org/2000/svg">
<path fill-rule="evenodd" clip-rule="evenodd" d="M29.8107 0L32.6645 2.31503L36.2948 1.73263L37.6003 5.16878L41.0364 6.47432L40.454 10.1046L42.7691 12.9584L40.454 15.8121L41.0364 19.4424L37.6003 20.7479L36.2948 24.1841L32.6645 23.6017L29.8107 25.9167L26.957 23.6017L23.3267 24.1841L22.0212 20.7479L18.585 19.4424L19.1674 15.8121L16.8524 12.9584L19.1674 10.1046L18.585 6.47432L22.0212 5.16878L23.3267 1.73263L26.957 2.31503L29.8107 0ZM32.2228 41.1464H42.8564C43.7106 40.2971 44.6473 39.4138 45.5937 38.5159C47.5884 36.628 49.6705 34.6575 51.8108 32.192C54.2569 29.3723 54.5189 28.3967 55.2615 25.6352C55.4023 25.1159 55.5576 24.5335 55.7614 23.8104L57.033 19.3405L57.0475 19.2919C57.727 17.3021 57.7804 15.9868 57.4989 15.2297C57.4115 14.9967 57.2999 14.8414 57.1689 14.7589C57.0669 14.691 56.931 14.6667 56.7903 14.6813C56.4603 14.7153 56.0866 14.9239 55.7468 15.2976L51.971 24.2908C51.937 24.3733 51.8885 24.451 51.8351 24.5189C51.6118 24.9218 51.3109 25.3149 50.9226 25.6886L44.2251 33.1578C43.8611 33.5655 43.235 33.5995 42.8322 33.2355C42.4245 32.8715 42.3905 32.2454 42.7545 31.8426C43.6621 30.8331 50.6994 23.9268 50.3402 22.3786C49.8937 20.4713 45.0987 25.3683 44.526 25.873L44.5114 25.8876C41.7013 28.5472 40.4929 29.1781 38.2895 30.3284C37.8284 30.571 37.3237 30.8331 36.6976 31.1728C36.4501 31.3087 36.2074 31.4737 35.9696 31.6533C35.7172 31.8475 35.4745 32.0464 35.2464 32.2406C34.0816 33.2209 33.4701 34.0169 33.1207 34.8953C32.7567 35.8078 32.6256 36.9192 32.4461 38.4431C32.3733 39.0546 32.3199 39.6661 32.2762 40.2728C32.2519 40.5689 32.2374 40.8601 32.2228 41.1464ZM27.3986 41.1464H16.7602C15.906 40.2971 14.9693 39.4138 14.018 38.5159C12.0233 36.628 9.94125 34.6575 7.80094 32.192C5.35487 29.3723 5.09279 28.3967 4.35023 25.6352C4.20949 25.1159 4.05418 24.5335 3.85034 23.8104L2.57877 19.3405L2.56421 19.2919C1.88475 17.3021 1.83136 15.9868 2.11286 15.2297C2.20022 14.9967 2.31184 14.8414 2.44288 14.7589C2.5448 14.691 2.68069 14.6667 2.82144 14.6813C3.15146 14.7153 3.52517 14.9239 3.8649 15.2976L7.64078 24.2908C7.67475 24.3733 7.72329 24.451 7.77667 24.5189C7.99993 24.9218 8.30083 25.3149 8.6891 25.6886L15.3867 33.1578C15.7507 33.5655 16.3767 33.5995 16.7796 33.2355C17.1873 32.8715 17.2212 32.2454 16.8572 31.8426C15.9594 30.8283 8.92206 23.922 9.2812 22.3738C9.72771 20.4664 14.5228 25.3634 15.0955 25.8682L15.11 25.8827C17.9201 28.5423 19.1286 29.1733 21.332 30.3235C21.793 30.5662 22.2978 30.8283 22.9239 31.168C23.1714 31.3039 23.4141 31.4689 23.6519 31.6485C23.9042 31.8426 24.1469 32.0416 24.375 32.2357C25.5398 33.2161 26.1513 34.012 26.5008 34.8905C26.8648 35.8029 26.9958 36.9143 27.1754 38.4383C27.2482 39.0498 27.3016 39.6613 27.3452 40.268C27.3695 40.5689 27.3841 40.8601 27.3986 41.1464ZM14.285 41.4861C14.1345 41.6609 14.0423 41.889 14.0423 42.1365V48.0284C14.0423 48.5768 14.4888 49.0185 15.0324 49.0185H28.4178C28.9662 49.0185 29.4079 48.572 29.4079 48.0284V42.0831C29.4079 41.4522 29.3691 40.7727 29.3254 40.1418C29.2817 39.4963 29.2235 38.8556 29.1507 38.2199C28.9565 36.5552 28.8109 35.337 28.345 34.1673C27.8645 32.9686 27.0929 31.9348 25.6611 30.7263C25.3991 30.5031 25.1321 30.2798 24.8506 30.0711C24.5546 29.8479 24.2343 29.6343 23.8751 29.4354C23.2927 29.1199 22.7491 28.8335 22.2541 28.5715C20.2157 27.5037 19.0995 26.9213 16.4738 24.4364C16.4544 24.417 16.4301 24.3976 16.4107 24.3831L13.8773 22.1457C12.596 20.646 10.0577 18.86 8.20862 20.481C7.2234 18.1368 6.25273 13.0263 3.03013 12.7108C2.44288 12.6526 1.87504 12.7788 1.38 13.0991C0.909233 13.4049 0.520968 13.8805 0.278302 14.5357C-0.148789 15.6762 -0.139083 17.4477 0.695688 19.8986L1.95755 24.3394C2.14198 24.98 2.30213 25.5964 2.45259 26.14C3.27765 29.2218 3.56885 30.3138 6.32068 33.4782C8.49982 35.9873 10.6353 38.0063 12.6785 39.9428C13.2075 40.4572 13.7414 40.9668 14.285 41.4861ZM16.1778 43.1266C16.3088 43.1557 16.4447 43.1557 16.5806 43.1266H27.4229V47.0383H16.0225V43.1266H16.1778ZM45.3365 41.4861C45.4869 41.6609 45.5791 41.889 45.5791 42.1365V48.0284C45.5791 48.5768 45.1375 49.0185 44.5891 49.0185H31.2085C30.6601 49.0185 30.2184 48.572 30.2184 48.0284V42.0831C30.2184 42.0491 30.2184 42.0103 30.2233 41.9763C30.2378 41.3405 30.2621 40.7242 30.3009 40.1418C30.3446 39.4963 30.4028 38.8556 30.4756 38.2199C30.6698 36.5552 30.8154 35.337 31.2813 34.1673C31.7618 32.9686 32.5334 31.9348 33.9652 30.7263C34.2272 30.5031 34.4942 30.2798 34.7757 30.0711C35.0717 29.8479 35.392 29.6343 35.7512 29.4354C36.3336 29.1199 36.8771 28.8335 37.3722 28.5715C39.4106 27.5037 40.5268 26.9213 43.1525 24.4364C43.1719 24.417 43.1962 24.3976 43.2156 24.3831L45.749 22.1457C47.0303 20.646 49.5686 18.86 51.4177 20.481C51.8982 19.3308 53.558 14.8269 54.1307 14.1377C54.8393 13.2884 55.7371 12.7933 56.5962 12.706C57.1834 12.6477 57.7513 12.7739 58.2463 13.0942C58.7171 13.4 59.1053 13.8756 59.348 14.5308C59.7751 15.6714 59.7654 17.4428 58.9306 19.8937L57.6687 24.3345C57.4843 24.9752 57.3242 25.5915 57.1737 26.1351C56.3486 29.217 56.0574 30.309 53.3056 33.4733C51.1265 35.9825 48.9959 38.0015 46.9478 39.9379C46.4139 40.4572 45.88 40.9668 45.3365 41.4861ZM43.4437 43.1266C43.3126 43.1557 43.1768 43.1557 43.0409 43.1266H32.1986V47.0383H43.599V43.1266H43.4437ZM29.8107 8.33799L31.1454 11.5994L34.664 11.8615L31.9753 14.1377L32.8149 17.5641L29.8156 15.7053L26.8162 17.5641L27.6559 14.1426L24.9574 11.8664L28.4761 11.6043L29.8107 8.34285V8.33799ZM29.8107 5.6347C33.8535 5.6347 37.1295 8.91554 37.1295 12.9535C37.1295 16.9963 33.8487 20.2723 29.8107 20.2723C25.7679 20.2723 22.4919 16.9915 22.4919 12.9535C22.4919 8.91554 25.7679 5.6347 29.8107 5.6347Z" fill="#1A1F36"/>
</svg>
