<svg width="42" height="39" viewBox="0 0 42 39" fill="none" xmlns="http://www.w3.org/2000/svg">
<path fill-rule="evenodd" clip-rule="evenodd" d="M10.3246 38.1837C12.3386 38.1837 13.9763 36.7189 13.9763 34.9151C13.9763 34.2709 13.7661 33.6708 13.4033 33.1622H13.5016C11.8979 31.4093 12.0674 29.9751 13.7661 29.4733H19.3842C20.0183 29.4733 20.537 28.9545 20.537 28.3205V23.333C20.9303 19.9288 22.3849 20.9392 24.0971 21.9937C28.2336 24.54 30.9834 18.5082 27.6403 16.4433C25.016 14.8227 23.8801 17.6097 21.9577 17.3215C21.2151 17.2096 20.6998 16.406 20.537 15.1854V10.2556C20.537 9.62152 20.0183 9.10277 19.3842 9.10277H14.4645C12.1352 8.80779 11.6944 7.24135 13.4982 5.27143H13.3999C13.7627 4.76284 13.9729 4.16271 13.9729 3.51851C13.9763 1.71472 12.342 0.25 10.3246 0.25C8.31064 0.25 6.67639 1.71472 6.67639 3.51851C6.67639 4.16271 6.88661 4.76284 7.2494 5.27143H7.22566C9.02944 7.24135 8.59206 8.81118 6.25935 9.10277H1.3193C0.685261 9.10277 0.166504 9.62152 0.166504 10.2556V15.3957C0.536076 17.5114 2.06183 17.8572 3.96055 16.1178V16.1416C4.46913 15.7788 5.06926 15.5686 5.71347 15.5686C7.51725 15.5686 8.98197 17.2028 8.98197 19.2168C8.98197 21.2308 7.51725 22.8651 5.71347 22.8651C5.06926 22.8651 4.46913 22.6549 3.96055 22.2921V22.3904C2.06183 20.651 0.536076 21.0003 0.166504 23.116V28.3239C0.166504 28.9579 0.685261 29.4767 1.3193 29.4767H6.95781C8.65648 29.9785 8.8294 31.4127 7.22227 33.1656H7.24601C6.88661 33.6742 6.673 34.2743 6.673 34.9185C6.67639 36.7223 8.31064 38.187 10.3246 38.1837ZM31.6716 38.3701H31.6649C29.6509 38.3701 28.0132 36.9054 28.0132 35.1016C28.0132 34.4574 28.2234 33.8573 28.5862 33.3487H28.5625C30.1662 31.5958 29.9967 30.1616 28.298 29.6598H22.6595C22.0255 29.6598 21.5067 29.141 21.5067 28.507V23.3092C21.778 22.5226 22.1238 22.2446 22.5307 22.2344C22.7172 22.231 22.9138 22.2819 23.124 22.3701C23.714 22.6142 24.4057 23.1261 25.1584 23.4177C28.0607 24.5366 30.5528 21.7123 30.3866 18.81C30.3493 18.1624 30.0882 17.5249 29.7017 16.935C28.22 14.6701 26.0263 14.4565 23.9106 15.7483C22.8324 16.4094 21.9746 16.9079 21.483 15.3516L21.5101 10.4387C21.5135 9.80461 22.0289 9.28586 22.6629 9.28586H27.5996C29.9289 8.99088 30.3697 7.42444 28.5659 5.45452H28.5896C28.2268 4.94593 28.0166 4.3458 28.0166 3.7016C28.0166 1.89781 29.6509 0.433091 31.6683 0.433091H31.675C33.689 0.433091 35.3267 1.89781 35.3267 3.7016C35.3267 4.3458 35.1165 4.94593 34.7537 5.45452H34.7774C32.9736 7.42444 33.411 8.99427 35.7437 9.28586H40.6804C41.3144 9.28586 41.8332 9.80461 41.8332 10.4387V15.5787C41.4636 17.6945 39.9378 18.0403 38.0391 16.3009V16.3247C37.5305 15.9619 36.9304 15.7517 36.2862 15.7517C34.4824 15.7517 33.0177 17.3859 33.0177 19.3999C33.0177 21.4139 34.4824 23.0516 36.2862 23.0516C36.9304 23.0516 37.5305 22.8413 38.0391 22.4785V22.5769C39.9412 20.8375 41.4636 21.1867 41.8332 23.3025V28.5002C41.8332 29.1342 41.3144 29.653 40.6804 29.653H35.0419C33.3432 30.1548 33.1737 31.589 34.7774 33.3419H34.7503C35.1131 33.8505 35.3233 34.4506 35.3233 35.0948C35.3199 36.9054 33.6856 38.3701 31.6716 38.3701Z" fill="white"/>
</svg>
