<svg width="45" height="45" viewBox="0 0 45 45" fill="none" xmlns="http://www.w3.org/2000/svg">
<path d="M20.2647 0C25.8551 0 30.9246 2.25285 34.597 5.87508C38.2691 9.51228 40.5287 14.5185 40.5287 20.0698C40.5287 24.1191 39.3097 27.9035 37.2282 31.0544L43.2011 37.5014C44.7417 39.1643 44.6274 41.7651 42.9469 43.2863C41.2881 44.788 38.7282 44.6695 37.2153 43.0209L31.49 36.7823C28.2779 38.9027 24.4123 40.1399 20.2647 40.1399C14.6744 40.1399 9.60452 37.8867 5.93242 34.2648C2.25995 30.6272 0 25.6206 0 20.0698C0 14.5331 2.27469 9.51228 5.93242 5.87508C9.60452 2.23825 14.6596 0 20.2647 0ZM14.1872 12.6905C17.1403 9.46287 20.5501 7.70978 23.1064 10.5796C23.7766 10.611 24.376 10.8308 24.8769 11.2987C25.928 12.2776 26.0913 14.1093 25.6105 15.5641V16.8339C25.936 17.0461 26.1465 17.4433 26.2418 17.8951C26.3053 18.186 26.3215 18.5083 26.289 18.8149C26.258 19.1335 26.1783 19.436 26.0513 19.6879C25.8691 20.0458 25.5905 20.297 25.214 20.352C24.844 20.7413 24.483 21.158 24.1621 21.5589C23.8083 21.9992 23.5067 22.4158 23.2969 22.758C23.1336 23.0215 23.1854 23.1945 23.2451 23.391C23.2723 23.4891 23.3041 23.5913 23.3241 23.7013C23.9716 23.8387 24.5548 23.9488 25.0791 24.0472C28.4095 24.6642 30.3746 24.857 30.3746 29.15C30.3746 29.3702 30.1958 29.5472 29.9736 29.5472H11.6029C11.3807 29.5472 11.2019 29.3702 11.2019 29.15C11.2019 24.857 13.1632 24.6646 16.4974 24.0472C17.0254 23.9488 17.6166 23.8387 18.2637 23.7013C18.2875 23.6149 18.3155 23.5363 18.3431 23.4576C18.4104 23.269 18.478 23.0803 18.2796 22.7621C18.069 22.4199 17.7674 22.0037 17.4144 21.563C17.0927 21.1621 16.7314 20.7455 16.3625 20.3561C15.9852 20.3015 15.7074 20.0495 15.5248 19.692C15.3978 19.4442 15.3185 19.1376 15.2867 18.8194C15.2587 18.5128 15.2746 18.1905 15.3343 17.8993C15.4296 17.447 15.636 17.054 15.9573 16.8417L15.5245 16.586C15.4096 15.3162 15.7467 13.1109 14.1826 12.6943L14.1872 12.6905ZM32.9914 7.46533C29.7351 4.24066 25.2303 2.23825 20.2647 2.23825C15.2988 2.23825 10.794 4.24103 7.53809 7.46533C4.28216 10.69 2.25995 15.1515 2.25995 20.0698C2.25995 24.988 4.28216 29.4495 7.53809 32.6742C10.794 35.8989 15.2988 37.9016 20.2647 37.9016C25.2303 37.9016 29.7351 35.8989 32.9914 32.6742C36.2469 29.4495 38.2691 24.988 38.2691 20.0698C38.2691 15.1515 36.2469 10.69 32.9914 7.46533Z" fill="#1A1F36"/>
</svg>
