<svg width="44" height="45" viewBox="0 0 44 45" fill="none" xmlns="http://www.w3.org/2000/svg">
<path fill-rule="evenodd" clip-rule="evenodd" d="M31.2496 0.641602C33.9894 0.641602 36.472 1.7321 38.2701 3.49255C40.0717 5.25385 41.1844 7.68855 41.1844 10.3778C41.1844 13.0654 40.0717 15.5009 38.2745 17.2614L38.2051 17.325C36.4123 19.0485 33.9569 20.1132 31.2496 20.1132C28.5099 20.1132 26.0273 19.0227 24.2292 17.2614C22.4276 15.5009 21.3148 13.0654 21.3148 10.3778C21.3148 9.52124 21.428 8.68961 21.6404 7.89839C18.3232 8.02568 15.093 9.16347 12.4594 11.1252C9.3476 13.4429 7.07122 16.9225 6.47712 21.2535L8.54552 21.2716C8.80703 21.2862 8.99307 21.3748 9.10101 21.5373C9.39499 21.9777 8.97991 22.4051 8.69909 22.7078C7.89349 23.5618 5.79789 26.2072 5.40299 26.6587C5.34122 26.734 5.26287 26.7946 5.17382 26.836C5.08476 26.8774 4.98731 26.8985 4.88874 26.8978C4.79009 26.897 4.69292 26.8742 4.60458 26.8311C4.51625 26.7881 4.43907 26.7259 4.37888 26.6493C3.97521 26.178 1.83134 23.401 1.0784 22.5573C0.816887 22.2649 0.495702 21.8633 0.774764 21.4625C0.882704 21.3026 1.07138 21.2174 1.33377 21.2071L3.39163 21.226L3.40217 21.1185C4.05507 15.826 6.81586 11.5672 10.6122 8.73949C14.1417 6.10957 18.5707 4.72666 23.0322 4.90469C23.3841 4.39728 23.7834 3.92513 24.2248 3.49255C26.0212 1.7321 28.5055 0.641602 31.2496 0.641602ZM21.4544 38.4099C20.1723 40.7733 17.6352 42.3832 14.713 42.3832C11.7881 42.3832 9.24932 40.7715 7.96809 38.4039C8.1278 38.3016 8.31033 38.207 8.46127 38.1261C9.48187 37.5689 11.8653 37.6101 12.6999 36.8731L13.7117 39.8453L13.831 40.0612L14.2821 38.7995L13.9776 38.4727C13.7468 38.1433 13.8266 37.771 14.2523 37.703C14.3953 37.6807 14.5568 37.6944 14.713 37.6944C14.878 37.6944 15.0631 37.6798 15.2185 37.7133C15.6142 37.7993 15.6555 38.1743 15.458 38.4727L15.1526 38.7995L15.5861 40.0079L15.6721 39.8453L16.8735 36.8731C17.6265 37.5388 20.2819 37.6712 21.1121 38.1261L21.4544 38.4099ZM14.7112 25.17C17.451 25.17 19.9336 26.2605 21.7317 28.021C23.5333 29.7823 24.646 32.217 24.646 34.9063C24.646 36.2909 24.3503 37.6084 23.8185 38.8013C26.4354 38.5174 28.9566 37.6058 31.1285 36.1645C34.2184 34.1125 36.6045 30.9811 37.5487 27.0552C37.6198 26.7602 37.6821 26.4618 37.7374 26.1625L35.5005 26.2098C35.2285 26.2021 35.031 26.1161 34.9143 25.9518C34.5949 25.5029 35.0117 25.0453 35.2943 24.722C36.1034 23.8104 38.1937 20.9981 38.5895 20.5165C38.6514 20.4363 38.7309 20.3709 38.8223 20.3252C38.9136 20.2794 39.0144 20.2546 39.1169 20.2525C39.324 20.2482 39.5215 20.3376 39.654 20.4941C40.0893 20.9715 42.4051 23.7889 43.2142 24.642C43.495 24.9378 43.8426 25.3446 43.5653 25.7703C43.4573 25.9398 43.2651 26.0335 42.9922 26.0524L40.8501 26.098C40.7676 26.663 40.6623 27.21 40.5351 27.7372C39.4039 32.4363 36.5474 36.186 32.8442 38.6439C29.5656 40.8206 25.6192 41.9816 21.6255 41.8921C19.837 43.5924 17.3983 44.6416 14.7112 44.6416C11.9715 44.6416 9.48889 43.5511 7.69078 41.7898C5.88916 40.0294 4.77642 37.5938 4.77642 34.9063C4.77642 32.217 5.88916 29.7823 7.68639 28.021C9.48275 26.2605 11.9671 25.17 14.7112 25.17ZM14.7112 26.2967C19.5632 26.2967 23.4964 30.1512 23.4964 34.9063C23.4964 39.6604 19.5632 43.515 14.7112 43.515C9.85922 43.515 5.92602 39.6604 5.92602 34.9063C5.92602 30.1512 9.85922 26.2967 14.7112 26.2967ZM13.0518 36.3605C12.7165 36.0698 12.4524 35.8583 12.3962 35.2528L12.3594 35.2537C12.2769 35.2528 12.197 35.2348 12.1224 35.1926C12.0031 35.1264 11.918 35.0112 11.8609 34.8813C11.7407 34.6104 11.645 33.8957 11.9487 33.6936L11.8855 33.5775C11.8741 33.433 11.8706 33.2593 11.8688 33.0761C11.8565 32.4062 11.8425 31.5935 11.2923 31.4301L11.0553 31.3604L11.2124 31.1721C11.6565 30.6337 12.1207 30.1616 12.5911 29.8012C13.1202 29.391 13.659 29.1192 14.1864 29.0401C14.7279 28.9593 15.2544 29.0822 15.7388 29.4658C15.8819 29.5793 16.0214 29.7161 16.1548 29.876C16.6734 29.9251 17.0955 30.1977 17.3974 30.5881C17.5782 30.8203 17.7151 31.0955 17.802 31.3879C17.8897 31.6795 17.9275 31.9899 17.9108 32.2952C17.8818 32.8422 17.6774 33.3763 17.2667 33.7659C17.3395 33.7685 17.4062 33.7839 17.4667 33.8158C17.6958 33.937 17.7037 34.1976 17.6431 34.4169C17.5835 34.6001 17.5089 34.8134 17.4369 34.9914C17.3492 35.2322 17.2228 35.2778 16.9771 35.2511C16.9648 35.848 16.684 36.0114 16.3066 36.3605C16.0425 37.1208 13.3615 37.1036 13.0518 36.3605ZM37.9928 13.8815C36.7107 16.2448 34.1728 17.8548 31.2505 17.8548C28.3265 17.8548 25.7877 16.2431 24.5065 13.8755C24.6662 13.7723 24.8487 13.6785 24.9997 13.5977C26.0194 13.0404 28.4028 13.0817 29.2383 12.3447L30.2501 15.3169L30.3686 15.5327L30.8205 14.2711L30.5151 13.9443C30.2852 13.6149 30.3651 13.2425 30.7898 13.1746C30.9337 13.1522 31.0952 13.166 31.2514 13.166C31.4164 13.166 31.6007 13.1514 31.7569 13.1849C32.1526 13.2709 32.193 13.6459 31.9964 13.9443L31.691 14.2711L32.1237 15.4786L32.2106 15.3169L33.4119 12.3447C34.1649 13.0103 36.8204 13.1428 37.6505 13.5977L37.9928 13.8815ZM29.5902 11.8321C29.255 11.5414 28.9908 11.3298 28.9346 10.7244L28.8978 10.7253C28.8153 10.7244 28.7354 10.7063 28.6608 10.6642C28.5406 10.598 28.4564 10.4827 28.3993 10.3529C28.2791 10.082 28.1835 9.3673 28.4871 9.16433L28.4239 9.04909C28.4116 8.90461 28.409 8.73089 28.4064 8.5477C28.3949 7.87775 28.3809 7.06504 27.8307 6.90164L27.5937 6.83112L27.7508 6.64363C28.194 6.10441 28.6591 5.63312 29.1295 5.27191C29.6586 4.86255 30.1974 4.59078 30.724 4.51166C31.2663 4.43082 31.792 4.5538 32.2764 4.93737C32.4203 5.05089 32.5598 5.18763 32.6932 5.34759C33.2118 5.39662 33.634 5.66924 33.9358 6.05969C34.1166 6.29189 34.2535 6.56709 34.3404 6.8595C34.4273 7.15018 34.4659 7.46151 34.4492 7.76681C34.4202 8.31378 34.2158 8.84785 33.8051 9.23743C33.877 9.24001 33.9446 9.25549 34.0052 9.28732C34.2342 9.40772 34.2421 9.6683 34.1815 9.88846C34.1219 10.0716 34.0473 10.2841 33.9753 10.463C33.8876 10.7029 33.7612 10.7493 33.5155 10.7227C33.5032 11.3195 33.2224 11.4829 32.845 11.8321C32.5809 12.5923 29.9 12.5751 29.5902 11.8321ZM31.2496 1.76822C36.1016 1.76822 40.0348 5.6228 40.0348 10.3778C40.0348 15.132 36.1016 18.9865 31.2496 18.9865C26.3976 18.9865 22.4644 15.132 22.4644 10.3778C22.4644 5.6228 26.3976 1.76822 31.2496 1.76822Z" fill="#1A1F36"/>
</svg>
