<svg width="32" height="38" viewBox="0 0 32 38" fill="none" xmlns="http://www.w3.org/2000/svg">
<path fill-rule="evenodd" clip-rule="evenodd" d="M10.303 22.1564C10.3028 21.6329 10.3793 21.1121 10.5301 20.6104H20.973C21.1982 21.356 21.2591 22.141 21.1516 22.9121C21.044 23.6831 20.7706 24.4221 20.3498 25.0786C19.9291 25.7352 19.3709 26.2939 18.7133 26.7167C18.0558 27.1395 17.3142 27.4164 16.5393 27.5287C15.7643 27.641 14.9741 27.586 14.2225 27.3674C13.4708 27.1487 12.7754 26.7717 12.1836 26.2618C11.5918 25.752 11.1174 25.1214 10.7929 24.4129C10.4684 23.7045 10.3013 22.9348 10.303 22.1564ZM13.4542 11.9341C12.9192 11.4611 12.4961 11.1178 12.4059 10.1346H12.3468C12.2138 10.1351 12.0829 10.101 11.9673 10.0356C11.7763 9.91786 11.6297 9.74069 11.5504 9.53163C11.3575 9.08947 11.2051 7.93305 11.6904 7.59911L11.6002 7.54036V7.4105C11.5815 7.1786 11.5784 6.89722 11.5722 6.60038C11.5722 5.51199 11.5317 4.19169 10.6389 3.92577L10.2657 3.81137L10.5145 3.50217C11.1674 2.68274 11.908 1.93627 12.7232 1.2759C13.4557 0.653875 14.3358 0.228145 15.2803 0.0390861C15.7208 -0.0315659 16.1715 -0.00621925 16.6012 0.113372C17.0309 0.232962 17.4293 0.44394 17.7689 0.731702C18.0128 0.930368 18.2359 1.1531 18.4346 1.39649C18.8297 1.43902 19.2113 1.56402 19.5544 1.76331C19.8975 1.96259 20.1943 2.23167 20.4255 2.55291C20.7189 2.94419 20.9382 3.3853 21.0726 3.85466C21.2128 4.33217 21.2717 4.82964 21.2468 5.32647C21.2262 6.23012 20.859 7.09179 20.2202 7.73516C20.3285 7.73939 20.4346 7.76681 20.5313 7.81555C20.8984 8.01035 20.9108 8.43396 20.8144 8.79264C20.718 9.10184 20.5966 9.43578 20.4815 9.72025C20.3415 10.1129 20.1393 10.1871 19.7474 10.1439C19.7256 11.1117 19.2777 11.3807 18.671 11.9465C18.6959 13.4029 13.4262 13.2328 13.4573 11.9465L13.4542 11.9341ZM13.1805 13.1339L14.7514 17.2277L15.554 14.9953L15.1683 14.5778C14.8759 14.1542 14.9754 13.675 15.5167 13.5884C15.7103 13.5743 15.9048 13.5743 16.0984 13.5884C16.3123 13.5733 16.5272 13.5816 16.7392 13.6131C17.2401 13.7213 17.293 14.2037 17.0503 14.5871L16.6615 15.0045L17.4205 17.2277L18.839 13.1339C19.8625 14.0615 22.8831 14.2346 24.0185 14.8592C25.5739 15.7281 25.5366 17.407 25.885 18.9623H6.14073C6.4798 17.4163 6.45181 15.7157 8.00721 14.8592C9.39463 14.0924 12.0513 14.1511 13.1867 13.1339H13.1805ZM3.58054 12.064C3.31301 11.6435 2.81839 11.0746 2.81839 10.5829C2.82439 10.4233 2.87865 10.2692 2.9741 10.1407C3.06955 10.0121 3.20174 9.9152 3.35345 9.86248C3.32856 9.44815 3.3099 9.02763 3.3099 8.61021C3.3099 8.36284 3.3099 8.11239 3.3099 7.86812C3.33406 7.71774 3.37154 7.56978 3.42188 7.42596C3.61523 6.79837 4.03809 6.26554 4.6071 5.93251C4.80846 5.80604 5.0234 5.70233 5.24793 5.6233C5.65544 5.47488 5.45946 4.79464 5.9043 4.78536C6.94642 4.75753 8.66048 5.71297 9.32619 6.42723C9.7523 6.89529 9.99517 7.49988 10.0106 8.13094L9.95457 9.94597C10.0532 9.96605 10.1452 10.0106 10.2219 10.0755C10.2985 10.1403 10.3575 10.2234 10.3932 10.317C10.5363 10.8921 9.93902 11.6033 9.65905 12.0609C9.54395 12.2495 9.28264 12.6299 9.03688 12.9885C8.4678 13.1143 7.91625 13.3085 7.39438 13.5667L7.31039 13.61C5.44391 14.6366 5.16705 16.2321 4.89018 17.8492C4.84974 18.0873 4.8093 18.3254 4.7502 18.5944C4.71883 18.7145 4.70315 18.8382 4.70354 18.9623H0C0 14.8252 3.17924 16.1393 4.69731 14.0615C4.77197 13.9532 4.80619 13.8945 4.80619 13.845C4.80619 13.7956 3.68008 12.2341 3.58054 12.064ZM27.9257 12.064C28.1901 11.6435 28.6878 11.0746 28.6878 10.5829C28.6818 10.4233 28.6276 10.2692 28.5321 10.1407C28.4367 10.0121 28.3045 9.9152 28.1528 9.86248C28.1777 9.44815 28.1932 9.02763 28.1932 8.61021C28.1932 8.36284 28.1932 8.11239 28.1932 7.86812C28.1727 7.71846 28.1404 7.57063 28.0968 7.42596C27.9013 6.7995 27.479 6.26737 26.9116 5.93251C26.7088 5.8066 26.4929 5.70293 26.2676 5.6233C25.8601 5.47488 26.0592 4.79464 25.6112 4.78536C24.5691 4.75753 22.8551 5.71297 22.1894 6.42723C21.7627 6.8947 21.5207 7.49989 21.5081 8.13094L21.5485 9.94597C21.4501 9.96658 21.3584 10.0113 21.2818 10.0761C21.2052 10.1409 21.1461 10.2237 21.1099 10.317C20.9699 10.8921 21.5672 11.6033 21.8441 12.0609C21.9467 12.2279 22.1551 12.5495 22.3916 12.871C23.1987 13.014 23.9832 13.2625 24.7247 13.61C26.5912 14.6459 26.8556 16.2166 27.1324 17.8337C27.176 18.0935 27.2195 18.3563 27.2849 18.6531C27.3072 18.7547 27.3187 18.8584 27.3191 18.9623H31.5C31.5 14.8252 28.3208 16.1393 26.7996 14.0615C26.7249 13.9532 26.6907 13.8945 26.6907 13.845C26.6907 13.7956 27.8199 12.2341 27.935 12.0764L27.9257 12.064ZM31.4876 22.3605V23.5045C31.4835 24.0131 31.2782 24.4996 30.9161 24.8589C30.5541 25.2182 30.0643 25.4215 29.5526 25.4247H27.5617C27.3139 26.5234 26.9118 27.582 26.3672 28.5693L27.6862 29.8865C28.0477 30.25 28.2504 30.7405 28.2504 31.2516C28.2504 31.7628 28.0477 32.2533 27.6862 32.6168L26.0716 34.2215C25.7067 34.5824 25.2129 34.7849 24.6982 34.7849C24.1835 34.7849 23.6897 34.5824 23.3248 34.2215L22.1147 33.0187C21.0978 33.6478 19.9929 34.124 18.8359 34.4318V36.0706C18.8343 36.5818 18.6292 37.0716 18.2656 37.4331C17.9019 37.7946 17.4091 37.9984 16.8948 38H14.6208C14.1065 37.9984 13.6137 37.7946 13.25 37.4331C12.8863 37.0716 12.6813 36.5818 12.6796 36.0706V34.4534C11.5108 34.1547 10.3939 33.6825 9.36663 33.0527L8.18764 34.2215C7.82326 34.5822 7.32998 34.7847 6.81577 34.7847C6.30156 34.7847 5.80828 34.5822 5.44391 34.2215L3.82629 32.6168C3.46477 32.2533 3.26202 31.7628 3.26202 31.2516C3.26202 30.7405 3.46477 30.25 3.82629 29.8865L5.09861 28.625C4.5379 27.6217 4.12414 26.5441 3.86984 25.4247H1.95981C1.4471 25.4231 0.95571 25.2206 0.592294 24.8611C0.228879 24.5016 0.0227574 24.0141 0.0186648 23.5045V21.2257C0.0196348 21.0152 0.0553657 20.8063 0.124432 20.6073H8.01654C7.93767 21.0566 7.89812 21.5118 7.89833 21.9678C7.89833 22.1038 7.89833 22.2368 7.89833 22.3698C7.89833 22.5027 7.89833 22.6388 7.89833 22.7717C7.89833 24.8309 8.7213 26.8057 10.1862 28.2618C11.6511 29.7178 13.6379 30.5358 15.7096 30.5358C17.7812 30.5358 19.768 29.7178 21.2329 28.2618C22.6978 26.8057 23.5208 24.8309 23.5208 22.7717C23.5208 22.6388 23.5208 22.5027 23.5208 22.3698C23.5208 22.2368 23.5208 22.1038 23.5208 21.9678C23.521 21.5118 23.4814 21.0566 23.4026 20.6073H31.3787C31.4501 20.8058 31.4869 21.0149 31.4876 21.2257V22.3605Z" fill="white"/>
</svg>
